<svg width="7" height="12" viewBox="0 0 7 12" version="1.1" xmlns="http://www.w3.org/2000/svg" xmlns:xlink="http://www.w3.org/1999/xlink">
<title>Vector</title>
<desc>Created using Figma</desc>
<g id="Canvas" transform="translate(508 -3758)">
<g id="Vector">
<use xlink:href="#path0_stroke" transform="matrix(-1 0 0 1 -502 3759)" fill="#2577F4"/>
</g>
</g>
<defs>
<path id="path0_stroke" d="M 0 5L -0.707107 4.29289C -1.09763 4.68342 -1.09763 5.31658 -0.707107 5.70711L 0 5ZM 5.70711 0.707107C 6.09763 0.316583 6.09763 -0.316583 5.70711 -0.707107C 5.31658 -1.09763 4.68342 -1.09763 4.29289 -0.707107L 5.70711 0.707107ZM 4.29289 10.7071C 4.68342 11.0976 5.31658 11.0976 5.70711 10.7071C 6.09763 10.3166 6.09763 9.68342 5.70711 9.29289L 4.29289 10.7071ZM 0.707107 5.70711L 5.70711 0.707107L 4.29289 -0.707107L -0.707107 4.29289L 0.707107 5.70711ZM -0.707107 5.70711L 4.29289 10.7071L 5.70711 9.29289L 0.707107 4.29289L -0.707107 5.70711Z"/>
</defs>
</svg>
