<svg width="13" height="9" viewBox="0 0 13 9" version="1.1" xmlns="http://www.w3.org/2000/svg" xmlns:xlink="http://www.w3.org/1999/xlink">
	<path transform="translate(1 1)" fill="#FFFFFF" d="M 0.707107 2.29289C 0.316583 1.90237 -0.316583 1.90237 -0.707107 2.29289C -1.09763 2.68342 -1.09763 3.31658 -0.707107 3.70711L 0.707107 2.29289ZM 4 7L 3.29289 7.70711C 3.68342 8.09763 4.31658 8.09763 4.70711 7.70711L 4 7ZM 11.7071 0.707107C 12.0976 0.316583 12.0976 -0.316583 11.7071 -0.707107C 11.3166 -1.09763 10.6834 -1.09763 10.2929 -0.707107L 11.7071 0.707107ZM -0.707107 3.70711L 3.29289 7.70711L 4.70711 6.29289L 0.707107 2.29289L -0.707107 3.70711ZM 4.70711 7.70711L 11.7071 0.707107L 10.2929 -0.707107L 3.29289 6.29289L 4.70711 7.70711Z"/>
</svg>