<svg width="57" height="58" viewBox="0 0 57 58" version="1.1" xmlns="http://www.w3.org/2000/svg" xmlns:xlink="http://www.w3.org/1999/xlink">
	<path fill="#DAE1E8" fill-rule="evenodd" d="M 3 1.5C 3 2.32837 2.32843 3 1.5 3C 0.67157 3 0 2.32837 0 1.5C 0 0.671631 0.67157 0 1.5 0C 2.32843 0 3 0.671631 3 1.5ZM 21 1.5C 21 2.32837 20.3284 3 19.5 3C 18.6716 3 18 2.32837 18 1.5C 18 0.671631 18.6716 0 19.5 0C 20.3284 0 21 0.671631 21 1.5ZM 37.5 3C 38.3284 3 39 2.32837 39 1.5C 39 0.671631 38.3284 0 37.5 0C 36.6716 0 36 0.671631 36 1.5C 36 2.32837 36.6716 3 37.5 3ZM 57 1.5C 57 2.32837 56.3284 3 55.5 3C 54.6716 3 54 2.32837 54 1.5C 54 0.671631 54.6716 0 55.5 0C 56.3284 0 57 0.671631 57 1.5ZM 3 19.5C 3 20.3284 2.32843 21 1.5 21C 0.67157 21 0 20.3284 0 19.5C 0 18.6716 0.67157 18 1.5 18C 2.32843 18 3 18.6716 3 19.5ZM 21 19.5C 21 20.3284 20.3284 21 19.5 21C 18.6716 21 18 20.3284 18 19.5C 18 18.6716 18.6716 18 19.5 18C 20.3284 18 21 18.6716 21 19.5ZM 37.5 21C 38.3284 21 39 20.3284 39 19.5C 39 18.6716 38.3284 18 37.5 18C 36.6716 18 36 18.6716 36 19.5C 36 20.3284 36.6716 21 37.5 21ZM 57 19.5C 57 20.3284 56.3284 21 55.5 21C 54.6716 21 54 20.3284 54 19.5C 54 18.6716 54.6716 18 55.5 18C 56.3284 18 57 18.6716 57 19.5ZM 1.5 39C 2.32843 39 3 38.3284 3 37.5C 3 36.6716 2.32843 36 1.5 36C 0.67157 36 0 36.6716 0 37.5C 0 38.3284 0.67157 39 1.5 39ZM 19.5 39C 20.3284 39 21 38.3284 21 37.5C 21 36.6716 20.3284 36 19.5 36C 18.6716 36 18 36.6716 18 37.5C 18 38.3284 18.6716 39 19.5 39ZM 39 37.5C 39 38.3284 38.3284 39 37.5 39C 36.6716 39 36 38.3284 36 37.5C 36 36.6716 36.6716 36 37.5 36C 38.3284 36 39 36.6716 39 37.5ZM 55.5 39C 56.3284 39 57 38.3284 57 37.5C 57 36.6716 56.3284 36 55.5 36C 54.6716 36 54 36.6716 54 37.5C 54 38.3284 54.6716 39 55.5 39ZM 3 56.5C 3 57.3284 2.32843 58 1.5 58C 0.67157 58 0 57.3284 0 56.5C 0 55.6716 0.67157 55 1.5 55C 2.32843 55 3 55.6716 3 56.5ZM 21 56.5C 21 57.3284 20.3284 58 19.5 58C 18.6716 58 18 57.3284 18 56.5C 18 55.6716 18.6716 55 19.5 55C 20.3284 55 21 55.6716 21 56.5ZM 37.5 58C 38.3284 58 39 57.3284 39 56.5C 39 55.6716 38.3284 55 37.5 55C 36.6716 55 36 55.6716 36 56.5C 36 57.3284 36.6716 58 37.5 58ZM 57 56.5C 57 57.3284 56.3284 58 55.5 58C 54.6716 58 54 57.3284 54 56.5C 54 55.6716 54.6716 55 55.5 55C 56.3284 55 57 55.6716 57 56.5Z"/>
</svg>