<svg width="186" height="186" viewBox="0 0 186 186" version="1.1" xmlns="http://www.w3.org/2000/svg" xmlns:xlink="http://www.w3.org/1999/xlink">
<title>open-book</title>
<desc>Created using Figma</desc>
<g id="Canvas" transform="translate(-152 -2864)">
<g id="open-book">
<g id="Group">
<g id="Group">
<g id="Group">
<g id="Vector">
<use xlink:href="#path0_fill" transform="translate(257.398 2935.3)" fill="#003B8C"/>
</g>
<g id="Vector">
<use xlink:href="#path1_fill" transform="translate(257.398 2898.1)" fill="#003B8C"/>
</g>
<g id="Vector">
<use xlink:href="#path2_fill" transform="translate(152 2864)" fill="#003B8C"/>
</g>
<g id="Vector">
<use xlink:href="#path3_fill" transform="translate(257.398 2916.7)" fill="#003B8C"/>
</g>
<g id="Vector">
<use xlink:href="#path4_fill" transform="translate(257.398 2953.9)" fill="#003B8C"/>
</g>
<g id="Vector">
<use xlink:href="#path5_fill" transform="translate(182.999 2919.82)" fill="#003B8C"/>
</g>
<g id="Vector">
<use xlink:href="#path6_fill" transform="translate(182.999 2938.42)" fill="#003B8C"/>
</g>
<g id="Vector">
<use xlink:href="#path7_fill" transform="translate(257.398 2972.5)" fill="#003B8C"/>
</g>
<g id="Vector">
<use xlink:href="#path8_fill" transform="translate(182.999 2957.02)" fill="#003B8C"/>
</g>
<g id="Vector">
<use xlink:href="#path9_fill" transform="translate(182.999 2994.21)" fill="#003B8C"/>
</g>
<g id="Vector">
<use xlink:href="#path10_fill" transform="translate(182.999 2975.61)" fill="#003B8C"/>
</g>
</g>
</g>
</g>
</g>
</g>
<defs>
<path id="path0_fill" d="M 0.336809 16.9087C 0.885362 17.9814 1.97666 18.6012 3.105 18.6012C 3.57618 18.6012 4.05971 18.4925 4.50945 18.2633C 4.69218 18.1703 22.939 8.90129 31.9382 6.05864C 33.569 5.54097 34.4739 3.79869 33.9562 2.1683C 33.4415 0.537544 31.7119 -0.370653 30.0659 0.144112C 20.5861 3.14188 2.46346 12.3488 1.69475 12.7393C 0.169339 13.5142 -0.438069 15.3807 0.336809 16.9087Z"/>
<path id="path1_fill" d="M 3.10494 18.6012C 3.57611 18.6012 4.05964 18.4925 4.50938 18.2633C 4.69211 18.1703 22.939 8.90128 31.9381 6.05864C 33.5689 5.54097 34.4739 3.79869 33.9562 2.1683C 33.4414 0.537543 31.7118 -0.370651 30.0658 0.144114C 20.586 3.14188 2.46339 12.3488 1.69469 12.7393C 0.169635 13.5142 -0.438136 15.3803 0.336742 16.9087C 0.885295 17.981 1.97659 18.6012 3.10494 18.6012Z"/>
<path id="path2_fill" d="M 182.9 46.501C 181.185 46.501 179.8 47.8898 179.8 49.6009L 179.8 170.5C 179.8 175.627 175.627 179.8 170.5 179.8L 96.1001 179.8L 96.1001 172.667C 100.62 171.086 112.394 167.4 124 167.4C 151.004 167.4 169.341 173.38 169.523 173.441C 170.456 173.751 171.498 173.597 172.313 173.014C 173.122 172.431 173.6 171.495 173.6 170.499L 173.6 34.1013C 173.6 32.6474 172.592 31.3887 171.172 31.0755C 171.172 31.0755 168.742 30.5331 164.588 29.7703C 162.911 29.4604 161.29 30.5764 160.979 32.2565C 160.67 33.9429 161.782 35.558 163.466 35.8679C 165.05 36.1592 166.377 36.4164 167.4 36.6213L 167.4 166.38C 160.375 164.538 144.776 161.2 124 161.2C 110.493 161.2 97.2251 165.636 93.1204 167.139C 89.4716 165.527 78.4421 161.2 65.0995 161.2C 43.7466 161.2 26.1573 164.721 18.5996 166.51L 18.5996 36.5003C 24.7903 34.9782 43.0742 31.001 65.0995 31.001C 76.4023 31.001 86.0957 34.5194 89.8996 36.1098L 89.8996 158.1C 89.8996 159.216 90.5008 160.248 91.4711 160.797C 92.4415 161.349 93.6381 161.333 94.5961 160.757C 94.903 160.574 125.618 142.228 152.879 133.142C 154.147 132.717 154.999 131.536 154.999 130.2L 154.999 3.10132C 154.999 2.08451 154.5 1.13272 153.663 0.553295C 152.832 -0.026496 151.766 -0.159819 150.808 0.19692C 126.005 9.49973 100.908 25.1174 100.657 25.2725C 99.2057 26.1807 98.7625 28.0934 99.6707 29.5443C 100.576 30.9952 102.489 31.4384 103.943 30.5302C 104.172 30.3846 126.005 16.8005 148.799 7.63394L 148.799 127.981C 127.639 135.334 105.545 147.34 96.0993 152.715L 96.0993 34.1013C 96.0993 32.9264 95.436 31.8537 94.385 31.3269C 93.8517 31.0635 81.1482 24.8014 65.0995 24.8014C 37.088 24.8014 15.5524 30.8619 14.6471 31.122C 13.3171 31.5002 12.3995 32.7186 12.3995 34.1013L 12.3995 170.5C 12.3995 171.47 12.8583 172.388 13.6303 172.974C 14.1759 173.386 14.8331 173.6 15.4997 173.6C 15.7849 173.6 16.0701 173.56 16.3491 173.479C 16.5631 173.42 37.9995 167.4 65.0995 167.4C 76.4331 167.4 86.1175 170.928 89.8996 172.512L 89.8996 179.8L 15.4997 179.8C 10.3724 179.8 6.19975 175.627 6.19975 170.5L 6.19975 49.6012C 6.19975 47.8902 4.81092 46.5014 3.09987 46.5014C 1.38882 46.5014 3.45179e-11 47.8902 3.45179e-11 49.6012L 3.45179e-11 170.5C 3.45179e-11 179.047 6.95319 186 15.5001 186L 170.5 186C 179.046 186 186 179.047 186 170.5L 186 49.6012C 186 47.8898 184.614 46.501 182.9 46.501Z"/>
<path id="path3_fill" d="M 0.336809 16.9086C 0.885362 17.9814 1.97666 18.6012 3.105 18.6012C 3.57618 18.6012 4.05971 18.4925 4.50945 18.2633C 4.69218 18.1703 22.939 8.90129 31.9382 6.05864C 33.569 5.54097 34.4739 3.79869 33.9562 2.1683C 33.4415 0.537545 31.7119 -0.370652 30.0659 0.144113C 20.5861 3.14188 2.46346 12.3488 1.69475 12.7393C 0.169339 13.5142 -0.438069 15.3807 0.336809 16.9086Z"/>
<path id="path4_fill" d="M 0.336809 16.9086C 0.885362 17.9814 1.97666 18.6012 3.105 18.6012C 3.57618 18.6012 4.05971 18.4925 4.50945 18.2633C 4.69218 18.1703 22.939 8.90129 31.9382 6.05864C 33.569 5.54097 34.4739 3.79869 33.9562 2.1683C 33.4415 0.537543 31.7119 -0.370648 30.0659 0.144116C 20.5861 3.14188 2.46346 12.3488 1.69475 12.7393C 0.169339 13.5142 -0.438069 15.3807 0.336809 16.9086Z"/>
<path id="path5_fill" d="M 44.1076 1.71522C 24.9653 -2.77671 3.2124 2.946 2.29802 3.19085C 0.645821 3.63405 -0.336852 5.33274 0.10635 6.98819C 0.47835 8.37373 1.73058 9.2852 3.09797 9.2852C 3.36461 9.2852 3.63417 9.25105 3.90409 9.17985C 4.11188 9.121 25.0554 3.61225 42.6945 7.75071C 44.3528 8.13833 46.0301 7.1059 46.4206 5.43809C 46.8108 3.77355 45.7754 2.10574 44.1076 1.71522Z"/>
<path id="path6_fill" d="M 44.1076 1.71379C 24.9653 -2.77487 3.2124 2.94458 2.29802 3.18943C 0.645821 3.63263 -0.336852 5.33167 0.10635 6.98677C 0.47835 8.37231 1.73058 9.28378 3.09797 9.28378C 3.36461 9.28378 3.63417 9.24963 3.90409 9.17842C 4.11188 9.11957 25.0554 3.61083 42.6945 7.74929C 44.3528 8.1369 46.0301 7.10447 46.4206 5.43666C 46.8108 3.77212 45.7754 2.10432 44.1076 1.71379Z"/>
<path id="path7_fill" d="M 0.336809 16.9086C 0.885362 17.9814 1.97666 18.6011 3.105 18.6011C 3.57618 18.6011 4.05971 18.4925 4.50945 18.2633C 4.69218 18.1703 22.939 8.90125 31.9382 6.0586C 33.569 5.54093 34.4739 3.79866 33.9562 2.16827C 33.4415 0.537878 31.7119 -0.370687 30.0659 0.144078C 20.5861 3.14184 2.46346 12.3488 1.69475 12.7393C 0.169339 13.5142 -0.438069 15.3807 0.336809 16.9086Z"/>
<path id="path8_fill" d="M 44.1076 1.71435C 24.9653 -2.77431 3.2124 2.94186 2.29802 3.18998C 0.645821 3.63318 -0.336852 5.33223 0.10635 6.98733C 0.47835 8.37287 1.73058 9.2876 3.09797 9.2876C 3.36461 9.2876 3.63417 9.25054 3.90409 9.17898C 4.11188 9.12013 25.0554 3.61139 42.6945 7.74985C 44.3528 8.13746 46.0301 7.10503 46.4206 5.43722C 46.8108 3.77268 45.7754 2.10487 44.1076 1.71435Z"/>
<path id="path9_fill" d="M 44.1076 1.71521C 24.9653 -2.77671 3.2124 2.946 2.29802 3.19085C 0.645821 3.63405 -0.336852 5.3331 0.10635 6.98819C 0.47835 8.37373 1.73058 9.28847 3.09797 9.28847C 3.36461 9.28847 3.63417 9.25141 3.90409 9.17984C 4.11188 9.12099 25.0554 3.61225 42.6945 7.75071C 44.3528 8.13506 46.0301 7.1059 46.4206 5.43809C 46.8108 3.77355 45.7754 2.10574 44.1076 1.71521Z"/>
<path id="path10_fill" d="M 44.1076 1.71577C 24.9653 -2.77615 3.2124 2.94329 2.29802 3.19141C 0.645821 3.63461 -0.336852 5.33365 0.10635 6.98874C 0.47835 8.37428 1.73058 9.28902 3.09797 9.28902C 3.36461 9.28902 3.63417 9.25197 3.90409 9.18041C 4.11188 9.12155 25.0554 3.6128 42.6945 7.75126C 44.3528 8.13888 46.0301 7.10645 46.4206 5.43864C 46.8108 3.7741 45.7754 2.1063 44.1076 1.71577Z"/>
</defs>
</svg>
