<svg width="140" height="140" viewBox="0 0 140 140" version="1.1" xmlns="http://www.w3.org/2000/svg" xmlns:xlink="http://www.w3.org/1999/xlink">
<g fill="#DAE1E8">
<path d="M 3 1.5C 3 2.32861 2.32843 3 1.5 3C 0.67157 3 0 2.32861 0 1.5C 0 0.671387 0.67157 0 1.5 0C 2.32843 0 3 0.671387 3 1.5Z"/>
<path d="M 11 1.5C 11 2.32861 10.3284 3 9.5 3C 8.67157 3 8 2.32861 8 1.5C 8 0.671387 8.67157 0 9.5 0C 10.3284 0 11 0.671387 11 1.5Z"/>
<path d="M 17.5 3C 18.3284 3 19 2.32861 19 1.5C 19 0.671387 18.3284 0 17.5 0C 16.6716 0 16 0.671387 16 1.5C 16 2.32861 16.6716 3 17.5 3Z"/>
<path d="M 27 1.5C 27 2.32861 26.3284 3 25.5 3C 24.6716 3 24 2.32861 24 1.5C 24 0.671387 24.6716 0 25.5 0C 26.3284 0 27 0.671387 27 1.5Z"/>
<path d="M 3 9.5C 3 10.3286 2.32843 11 1.5 11C 0.67157 11 0 10.3286 0 9.5C 0 8.67139 0.67157 8 1.5 8C 2.32843 8 3 8.67139 3 9.5Z"/>
<path d="M 11 9.5C 11 10.3286 10.3284 11 9.5 11C 8.67157 11 8 10.3286 8 9.5C 8 8.67139 8.67157 8 9.5 8C 10.3284 8 11 8.67139 11 9.5Z"/>
<path d="M 17.5 11C 18.3284 11 19 10.3286 19 9.5C 19 8.67139 18.3284 8 17.5 8C 16.6716 8 16 8.67139 16 9.5C 16 10.3286 16.6716 11 17.5 11Z"/>
<path d="M 27 9.5C 27 10.3286 26.3284 11 25.5 11C 24.6716 11 24 10.3286 24 9.5C 24 8.67139 24.6716 8 25.5 8C 26.3284 8 27 8.67139 27 9.5Z"/>
<path d="M 1.5 19C 2.32843 19 3 18.3286 3 17.5C 3 16.6714 2.32843 16 1.5 16C 0.67157 16 0 16.6714 0 17.5C 0 18.3286 0.67157 19 1.5 19Z"/>
<path d="M 9.5 19C 10.3284 19 11 18.3286 11 17.5C 11 16.6714 10.3284 16 9.5 16C 8.67157 16 8 16.6714 8 17.5C 8 18.3286 8.67157 19 9.5 19Z"/>
<path d="M 19 17.5C 19 18.3286 18.3284 19 17.5 19C 16.6716 19 16 18.3286 16 17.5C 16 16.6714 16.6716 16 17.5 16C 18.3284 16 19 16.6714 19 17.5Z"/>
<path d="M 25.5 19C 26.3284 19 27 18.3286 27 17.5C 27 16.6714 26.3284 16 25.5 16C 24.6716 16 24 16.6714 24 17.5C 24 18.3286 24.6716 19 25.5 19Z"/>
<path d="M 3 25.5C 3 26.3286 2.32843 27 1.5 27C 0.67157 27 0 26.3286 0 25.5C 0 24.6714 0.67157 24 1.5 24C 2.32843 24 3 24.6714 3 25.5Z"/>
<path d="M 11 25.5C 11 26.3286 10.3284 27 9.5 27C 8.67157 27 8 26.3286 8 25.5C 8 24.6714 8.67157 24 9.5 24C 10.3284 24 11 24.6714 11 25.5Z"/>
<path d="M 17.5 27C 18.3284 27 19 26.3286 19 25.5C 19 24.6714 18.3284 24 17.5 24C 16.6716 24 16 24.6714 16 25.5C 16 26.3286 16.6716 27 17.5 27Z"/>
<path d="M 27 25.5C 27 26.3286 26.3284 27 25.5 27C 24.6716 27 24 26.3286 24 25.5C 24 24.6714 24.6716 24 25.5 24C 26.3284 24 27 24.6714 27 25.5Z"/>
<path d="M 35 1.5C 35 2.32861 34.3284 3 33.5 3C 32.6716 3 32 2.32861 32 1.5C 32 0.671387 32.6716 0 33.5 0C 34.3284 0 35 0.671387 35 1.5Z"/>
<path d="M 43 1.5C 43 2.32861 42.3284 3 41.5 3C 40.6716 3 40 2.32861 40 1.5C 40 0.671387 40.6716 0 41.5 0C 42.3284 0 43 0.671387 43 1.5Z"/>
<path d="M 49.5 3C 50.3284 3 51 2.32861 51 1.5C 51 0.671387 50.3284 0 49.5 0C 48.6716 0 48 0.671387 48 1.5C 48 2.32861 48.6716 3 49.5 3Z"/>
<path d="M 59 1.5C 59 2.32861 58.3284 3 57.5 3C 56.6716 3 56 2.32861 56 1.5C 56 0.671387 56.6716 0 57.5 0C 58.3284 0 59 0.671387 59 1.5Z"/>
<path d="M 35 9.5C 35 10.3286 34.3284 11 33.5 11C 32.6716 11 32 10.3286 32 9.5C 32 8.67139 32.6716 8 33.5 8C 34.3284 8 35 8.67139 35 9.5Z"/>
<path d="M 43 9.5C 43 10.3286 42.3284 11 41.5 11C 40.6716 11 40 10.3286 40 9.5C 40 8.67139 40.6716 8 41.5 8C 42.3284 8 43 8.67139 43 9.5Z"/>
<path d="M 49.5 11C 50.3284 11 51 10.3286 51 9.5C 51 8.67139 50.3284 8 49.5 8C 48.6716 8 48 8.67139 48 9.5C 48 10.3286 48.6716 11 49.5 11Z"/>
<path d="M 59 9.5C 59 10.3286 58.3284 11 57.5 11C 56.6716 11 56 10.3286 56 9.5C 56 8.67139 56.6716 8 57.5 8C 58.3284 8 59 8.67139 59 9.5Z"/>
<path d="M 33.5 19C 34.3284 19 35 18.3286 35 17.5C 35 16.6714 34.3284 16 33.5 16C 32.6716 16 32 16.6714 32 17.5C 32 18.3286 32.6716 19 33.5 19Z"/>
<path d="M 41.5 19C 42.3284 19 43 18.3286 43 17.5C 43 16.6714 42.3284 16 41.5 16C 40.6716 16 40 16.6714 40 17.5C 40 18.3286 40.6716 19 41.5 19Z"/>
<path d="M 51 17.5C 51 18.3286 50.3284 19 49.5 19C 48.6716 19 48 18.3286 48 17.5C 48 16.6714 48.6716 16 49.5 16C 50.3284 16 51 16.6714 51 17.5Z"/>
<path d="M 57.5 19C 58.3284 19 59 18.3286 59 17.5C 59 16.6714 58.3284 16 57.5 16C 56.6716 16 56 16.6714 56 17.5C 56 18.3286 56.6716 19 57.5 19Z"/>
<path d="M 35 25.5C 35 26.3286 34.3284 27 33.5 27C 32.6716 27 32 26.3286 32 25.5C 32 24.6714 32.6716 24 33.5 24C 34.3284 24 35 24.6714 35 25.5Z"/>
<path d="M 43 25.5C 43 26.3286 42.3284 27 41.5 27C 40.6716 27 40 26.3286 40 25.5C 40 24.6714 40.6716 24 41.5 24C 42.3284 24 43 24.6714 43 25.5Z"/>
<path d="M 49.5 27C 50.3284 27 51 26.3286 51 25.5C 51 24.6714 50.3284 24 49.5 24C 48.6716 24 48 24.6714 48 25.5C 48 26.3286 48.6716 27 49.5 27Z"/>
<path d="M 59 25.5C 59 26.3286 58.3284 27 57.5 27C 56.6716 27 56 26.3286 56 25.5C 56 24.6714 56.6716 24 57.5 24C 58.3284 24 59 24.6714 59 25.5Z"/>
<path d="M 65.5 3C 66.3284 3 67 2.32861 67 1.5C 67 0.671387 66.3284 0 65.5 0C 64.6716 0 64 0.671387 64 1.5C 64 2.32861 64.6716 3 65.5 3Z"/>
<path d="M 73.5 3C 74.3284 3 75 2.32861 75 1.5C 75 0.671387 74.3284 0 73.5 0C 72.6716 0 72 0.671387 72 1.5C 72 2.32861 72.6716 3 73.5 3Z"/>
<path d="M 83 1.5C 83 2.32861 82.3284 3 81.5 3C 80.6716 3 80 2.32861 80 1.5C 80 0.671387 80.6716 0 81.5 0C 82.3284 0 83 0.671387 83 1.5Z"/>
<path d="M 89.5 3C 90.3284 3 91 2.32861 91 1.5C 91 0.671387 90.3284 0 89.5 0C 88.6716 0 88 0.671387 88 1.5C 88 2.32861 88.6716 3 89.5 3Z"/>
<path d="M 65.5 11C 66.3284 11 67 10.3286 67 9.5C 67 8.67139 66.3284 8 65.5 8C 64.6716 8 64 8.67139 64 9.5C 64 10.3286 64.6716 11 65.5 11Z"/>
<path d="M 73.5 11C 74.3284 11 75 10.3286 75 9.5C 75 8.67139 74.3284 8 73.5 8C 72.6716 8 72 8.67139 72 9.5C 72 10.3286 72.6716 11 73.5 11Z"/>
<path d="M 83 9.5C 83 10.3286 82.3284 11 81.5 11C 80.6716 11 80 10.3286 80 9.5C 80 8.67139 80.6716 8 81.5 8C 82.3284 8 83 8.67139 83 9.5Z"/>
<path d="M 89.5 11C 90.3284 11 91 10.3286 91 9.5C 91 8.67139 90.3284 8 89.5 8C 88.6716 8 88 8.67139 88 9.5C 88 10.3286 88.6716 11 89.5 11Z"/>
<path d="M 67 17.5C 67 18.3286 66.3284 19 65.5 19C 64.6716 19 64 18.3286 64 17.5C 64 16.6714 64.6716 16 65.5 16C 66.3284 16 67 16.6714 67 17.5Z"/>
<path d="M 75 17.5C 75 18.3286 74.3284 19 73.5 19C 72.6716 19 72 18.3286 72 17.5C 72 16.6714 72.6716 16 73.5 16C 74.3284 16 75 16.6714 75 17.5Z"/>
<path d="M 81.5 19C 82.3284 19 83 18.3286 83 17.5C 83 16.6714 82.3284 16 81.5 16C 80.6716 16 80 16.6714 80 17.5C 80 18.3286 80.6716 19 81.5 19Z"/>
<path d="M 91 17.5C 91 18.3286 90.3284 19 89.5 19C 88.6716 19 88 18.3286 88 17.5C 88 16.6714 88.6716 16 89.5 16C 90.3284 16 91 16.6714 91 17.5Z"/>
<path d="M 65.5 27C 66.3284 27 67 26.3286 67 25.5C 67 24.6714 66.3284 24 65.5 24C 64.6716 24 64 24.6714 64 25.5C 64 26.3286 64.6716 27 65.5 27Z"/>
<path d="M 73.5 27C 74.3284 27 75 26.3286 75 25.5C 75 24.6714 74.3284 24 73.5 24C 72.6716 24 72 24.6714 72 25.5C 72 26.3286 72.6716 27 73.5 27Z"/>
<path d="M 83 25.5C 83 26.3286 82.3284 27 81.5 27C 80.6716 27 80 26.3286 80 25.5C 80 24.6714 80.6716 24 81.5 24C 82.3284 24 83 24.6714 83 25.5Z"/>
<path d="M 89.5 27C 90.3284 27 91 26.3286 91 25.5C 91 24.6714 90.3284 24 89.5 24C 88.6716 24 88 24.6714 88 25.5C 88 26.3286 88.6716 27 89.5 27Z"/>
<path d="M 99 1.5C 99 2.32861 98.3284 3 97.5 3C 96.6716 3 96 2.32861 96 1.5C 96 0.671387 96.6716 0 97.5 0C 98.3284 0 99 0.671387 99 1.5Z"/>
<path d="M 107 1.5C 107 2.32861 106.328 3 105.5 3C 104.672 3 104 2.32861 104 1.5C 104 0.671387 104.672 0 105.5 0C 106.328 0 107 0.671387 107 1.5Z"/>
<path d="M 113.5 3C 114.328 3 115 2.32861 115 1.5C 115 0.671387 114.328 0 113.5 0C 112.672 0 112 0.671387 112 1.5C 112 2.32861 112.672 3 113.5 3Z"/>
<path d="M 123 1.5C 123 2.32861 122.328 3 121.5 3C 120.672 3 120 2.32861 120 1.5C 120 0.671387 120.672 0 121.5 0C 122.328 0 123 0.671387 123 1.5Z"/>
<path d="M 99 9.5C 99 10.3286 98.3284 11 97.5 11C 96.6716 11 96 10.3286 96 9.5C 96 8.67139 96.6716 8 97.5 8C 98.3284 8 99 8.67139 99 9.5Z"/>
<path d="M 107 9.5C 107 10.3286 106.328 11 105.5 11C 104.672 11 104 10.3286 104 9.5C 104 8.67139 104.672 8 105.5 8C 106.328 8 107 8.67139 107 9.5Z"/>
<path d="M 113.5 11C 114.328 11 115 10.3286 115 9.5C 115 8.67139 114.328 8 113.5 8C 112.672 8 112 8.67139 112 9.5C 112 10.3286 112.672 11 113.5 11Z"/>
<path d="M 123 9.5C 123 10.3286 122.328 11 121.5 11C 120.672 11 120 10.3286 120 9.5C 120 8.67139 120.672 8 121.5 8C 122.328 8 123 8.67139 123 9.5Z"/>
<path d="M 97.5 19C 98.3284 19 99 18.3286 99 17.5C 99 16.6714 98.3284 16 97.5 16C 96.6716 16 96 16.6714 96 17.5C 96 18.3286 96.6716 19 97.5 19Z"/>
<path d="M 105.5 19C 106.328 19 107 18.3286 107 17.5C 107 16.6714 106.328 16 105.5 16C 104.672 16 104 16.6714 104 17.5C 104 18.3286 104.672 19 105.5 19Z"/>
<path d="M 115 17.5C 115 18.3286 114.328 19 113.5 19C 112.672 19 112 18.3286 112 17.5C 112 16.6714 112.672 16 113.5 16C 114.328 16 115 16.6714 115 17.5Z"/>
<path d="M 121.5 19C 122.328 19 123 18.3286 123 17.5C 123 16.6714 122.328 16 121.5 16C 120.672 16 120 16.6714 120 17.5C 120 18.3286 120.672 19 121.5 19Z"/>
<path d="M 99 25.5C 99 26.3286 98.3284 27 97.5 27C 96.6716 27 96 26.3286 96 25.5C 96 24.6714 96.6716 24 97.5 24C 98.3284 24 99 24.6714 99 25.5Z"/>
<path d="M 107 25.5C 107 26.3286 106.328 27 105.5 27C 104.672 27 104 26.3286 104 25.5C 104 24.6714 104.672 24 105.5 24C 106.328 24 107 24.6714 107 25.5Z"/>
<path d="M 113.5 27C 114.328 27 115 26.3286 115 25.5C 115 24.6714 114.328 24 113.5 24C 112.672 24 112 24.6714 112 25.5C 112 26.3286 112.672 27 113.5 27Z"/>
<path d="M 123 25.5C 123 26.3286 122.328 27 121.5 27C 120.672 27 120 26.3286 120 25.5C 120 24.6714 120.672 24 121.5 24C 122.328 24 123 24.6714 123 25.5Z"/>
<path d="M 129.5 3C 130.328 3 131 2.32861 131 1.5C 131 0.671387 130.328 0 129.5 0C 128.672 0 128 0.671387 128 1.5C 128 2.32861 128.672 3 129.5 3Z"/>
<path d="M 137.5 3C 138.328 3 139 2.32861 139 1.5C 139 0.671387 138.328 0 137.5 0C 136.672 0 136 0.671387 136 1.5C 136 2.32861 136.672 3 137.5 3Z"/>
<path d="M 147 1.5C 147 2.32861 146.328 3 145.5 3C 144.672 3 144 2.32861 144 1.5C 144 0.671387 144.672 0 145.5 0C 146.328 0 147 0.671387 147 1.5Z"/>
<path d="M 153.5 3C 154.328 3 155 2.32861 155 1.5C 155 0.671387 154.328 0 153.5 0C 152.672 0 152 0.671387 152 1.5C 152 2.32861 152.672 3 153.5 3Z"/>
<path d="M 129.5 11C 130.328 11 131 10.3286 131 9.5C 131 8.67139 130.328 8 129.5 8C 128.672 8 128 8.67139 128 9.5C 128 10.3286 128.672 11 129.5 11Z"/>
<path d="M 137.5 11C 138.328 11 139 10.3286 139 9.5C 139 8.67139 138.328 8 137.5 8C 136.672 8 136 8.67139 136 9.5C 136 10.3286 136.672 11 137.5 11Z"/>
<path d="M 147 9.5C 147 10.3286 146.328 11 145.5 11C 144.672 11 144 10.3286 144 9.5C 144 8.67139 144.672 8 145.5 8C 146.328 8 147 8.67139 147 9.5Z"/>
<path d="M 153.5 11C 154.328 11 155 10.3286 155 9.5C 155 8.67139 154.328 8 153.5 8C 152.672 8 152 8.67139 152 9.5C 152 10.3286 152.672 11 153.5 11Z"/>
<path d="M 131 17.5C 131 18.3286 130.328 19 129.5 19C 128.672 19 128 18.3286 128 17.5C 128 16.6714 128.672 16 129.5 16C 130.328 16 131 16.6714 131 17.5Z"/>
<path d="M 139 17.5C 139 18.3286 138.328 19 137.5 19C 136.672 19 136 18.3286 136 17.5C 136 16.6714 136.672 16 137.5 16C 138.328 16 139 16.6714 139 17.5Z"/>
<path d="M 145.5 19C 146.328 19 147 18.3286 147 17.5C 147 16.6714 146.328 16 145.5 16C 144.672 16 144 16.6714 144 17.5C 144 18.3286 144.672 19 145.5 19Z"/>
<path d="M 155 17.5C 155 18.3286 154.328 19 153.5 19C 152.672 19 152 18.3286 152 17.5C 152 16.6714 152.672 16 153.5 16C 154.328 16 155 16.6714 155 17.5Z"/>
<path d="M 129.5 27C 130.328 27 131 26.3286 131 25.5C 131 24.6714 130.328 24 129.5 24C 128.672 24 128 24.6714 128 25.5C 128 26.3286 128.672 27 129.5 27Z"/>
<path d="M 137.5 27C 138.328 27 139 26.3286 139 25.5C 139 24.6714 138.328 24 137.5 24C 136.672 24 136 24.6714 136 25.5C 136 26.3286 136.672 27 137.5 27Z"/>
<path d="M 147 25.5C 147 26.3286 146.328 27 145.5 27C 144.672 27 144 26.3286 144 25.5C 144 24.6714 144.672 24 145.5 24C 146.328 24 147 24.6714 147 25.5Z"/>
<path d="M 153.5 27C 154.328 27 155 26.3286 155 25.5C 155 24.6714 154.328 24 153.5 24C 152.672 24 152 24.6714 152 25.5C 152 26.3286 152.672 27 153.5 27Z"/>
<path d="M 3 33.5C 3 34.3286 2.32843 35 1.5 35C 0.67157 35 0 34.3286 0 33.5C 0 32.6714 0.67157 32 1.5 32C 2.32843 32 3 32.6714 3 33.5Z"/>
<path d="M 11 33.5C 11 34.3286 10.3284 35 9.5 35C 8.67157 35 8 34.3286 8 33.5C 8 32.6714 8.67157 32 9.5 32C 10.3284 32 11 32.6714 11 33.5Z"/>
<path d="M 17.5 35C 18.3284 35 19 34.3286 19 33.5C 19 32.6714 18.3284 32 17.5 32C 16.6716 32 16 32.6714 16 33.5C 16 34.3286 16.6716 35 17.5 35Z"/>
<path d="M 27 33.5C 27 34.3286 26.3284 35 25.5 35C 24.6716 35 24 34.3286 24 33.5C 24 32.6714 24.6716 32 25.5 32C 26.3284 32 27 32.6714 27 33.5Z"/>
<path d="M 3 41.5C 3 42.3286 2.32843 43 1.5 43C 0.67157 43 0 42.3286 0 41.5C 0 40.6714 0.67157 40 1.5 40C 2.32843 40 3 40.6714 3 41.5Z"/>
<path d="M 11 41.5C 11 42.3286 10.3284 43 9.5 43C 8.67157 43 8 42.3286 8 41.5C 8 40.6714 8.67157 40 9.5 40C 10.3284 40 11 40.6714 11 41.5Z"/>
<path d="M 17.5 43C 18.3284 43 19 42.3286 19 41.5C 19 40.6714 18.3284 40 17.5 40C 16.6716 40 16 40.6714 16 41.5C 16 42.3286 16.6716 43 17.5 43Z"/>
<path d="M 27 41.5C 27 42.3286 26.3284 43 25.5 43C 24.6716 43 24 42.3286 24 41.5C 24 40.6714 24.6716 40 25.5 40C 26.3284 40 27 40.6714 27 41.5Z"/>
<path d="M 1.5 51C 2.32843 51 3 50.3286 3 49.5C 3 48.6714 2.32843 48 1.5 48C 0.67157 48 0 48.6714 0 49.5C 0 50.3286 0.67157 51 1.5 51Z"/>
<path d="M 9.5 51C 10.3284 51 11 50.3286 11 49.5C 11 48.6714 10.3284 48 9.5 48C 8.67157 48 8 48.6714 8 49.5C 8 50.3286 8.67157 51 9.5 51Z"/>
<path d="M 19 49.5C 19 50.3286 18.3284 51 17.5 51C 16.6716 51 16 50.3286 16 49.5C 16 48.6714 16.6716 48 17.5 48C 18.3284 48 19 48.6714 19 49.5Z"/>
<path d="M 25.5 51C 26.3284 51 27 50.3286 27 49.5C 27 48.6714 26.3284 48 25.5 48C 24.6716 48 24 48.6714 24 49.5C 24 50.3286 24.6716 51 25.5 51Z"/>
<path d="M 3 57.5C 3 58.3286 2.32843 59 1.5 59C 0.67157 59 0 58.3286 0 57.5C 0 56.6714 0.67157 56 1.5 56C 2.32843 56 3 56.6714 3 57.5Z"/>
<path d="M 11 57.5C 11 58.3286 10.3284 59 9.5 59C 8.67157 59 8 58.3286 8 57.5C 8 56.6714 8.67157 56 9.5 56C 10.3284 56 11 56.6714 11 57.5Z"/>
<path d="M 17.5 59C 18.3284 59 19 58.3286 19 57.5C 19 56.6714 18.3284 56 17.5 56C 16.6716 56 16 56.6714 16 57.5C 16 58.3286 16.6716 59 17.5 59Z"/>
<path d="M 27 57.5C 27 58.3286 26.3284 59 25.5 59C 24.6716 59 24 58.3286 24 57.5C 24 56.6714 24.6716 56 25.5 56C 26.3284 56 27 56.6714 27 57.5Z"/>
<path d="M 33.5 35C 34.3284 35 35 34.3286 35 33.5C 35 32.6714 34.3284 32 33.5 32C 32.6716 32 32 32.6714 32 33.5C 32 34.3286 32.6716 35 33.5 35Z"/>
<path d="M 41.5 35C 42.3284 35 43 34.3286 43 33.5C 43 32.6714 42.3284 32 41.5 32C 40.6716 32 40 32.6714 40 33.5C 40 34.3286 40.6716 35 41.5 35Z"/>
<path d="M 51 33.5C 51 34.3286 50.3284 35 49.5 35C 48.6716 35 48 34.3286 48 33.5C 48 32.6714 48.6716 32 49.5 32C 50.3284 32 51 32.6714 51 33.5Z"/>
<path d="M 57.5 35C 58.3284 35 59 34.3286 59 33.5C 59 32.6714 58.3284 32 57.5 32C 56.6716 32 56 32.6714 56 33.5C 56 34.3286 56.6716 35 57.5 35Z"/>
<path  d="M 33.5 43C 34.3284 43 35 42.3286 35 41.5C 35 40.6714 34.3284 40 33.5 40C 32.6716 40 32 40.6714 32 41.5C 32 42.3286 32.6716 43 33.5 43Z"/>
<path  d="M 41.5 43C 42.3284 43 43 42.3286 43 41.5C 43 40.6714 42.3284 40 41.5 40C 40.6716 40 40 40.6714 40 41.5C 40 42.3286 40.6716 43 41.5 43Z"/>
<path  d="M 51 41.5C 51 42.3286 50.3284 43 49.5 43C 48.6716 43 48 42.3286 48 41.5C 48 40.6714 48.6716 40 49.5 40C 50.3284 40 51 40.6714 51 41.5Z"/>
<path  d="M 57.5 43C 58.3284 43 59 42.3286 59 41.5C 59 40.6714 58.3284 40 57.5 40C 56.6716 40 56 40.6714 56 41.5C 56 42.3286 56.6716 43 57.5 43Z"/>
<path  d="M 35 49.5C 35 50.3286 34.3284 51 33.5 51C 32.6716 51 32 50.3286 32 49.5C 32 48.6714 32.6716 48 33.5 48C 34.3284 48 35 48.6714 35 49.5Z"/>
<path  d="M 43 49.5C 43 50.3286 42.3284 51 41.5 51C 40.6716 51 40 50.3286 40 49.5C 40 48.6714 40.6716 48 41.5 48C 42.3284 48 43 48.6714 43 49.5Z"/>
<path  d="M 49.5 51C 50.3284 51 51 50.3286 51 49.5C 51 48.6714 50.3284 48 49.5 48C 48.6716 48 48 48.6714 48 49.5C 48 50.3286 48.6716 51 49.5 51Z"/>
<path  d="M 59 49.5C 59 50.3286 58.3284 51 57.5 51C 56.6716 51 56 50.3286 56 49.5C 56 48.6714 56.6716 48 57.5 48C 58.3284 48 59 48.6714 59 49.5Z"/>
<path  d="M 33.5 59C 34.3284 59 35 58.3286 35 57.5C 35 56.6714 34.3284 56 33.5 56C 32.6716 56 32 56.6714 32 57.5C 32 58.3286 32.6716 59 33.5 59Z"/>
<path  d="M 41.5 59C 42.3284 59 43 58.3286 43 57.5C 43 56.6714 42.3284 56 41.5 56C 40.6716 56 40 56.6714 40 57.5C 40 58.3286 40.6716 59 41.5 59Z"/>
<path  d="M 51 57.5C 51 58.3286 50.3284 59 49.5 59C 48.6716 59 48 58.3286 48 57.5C 48 56.6714 48.6716 56 49.5 56C 50.3284 56 51 56.6714 51 57.5Z"/>
<path  d="M 57.5 59C 58.3284 59 59 58.3286 59 57.5C 59 56.6714 58.3284 56 57.5 56C 56.6716 56 56 56.6714 56 57.5C 56 58.3286 56.6716 59 57.5 59Z"/>
<path  d="M 67 33.5C 67 34.3286 66.3284 35 65.5 35C 64.6716 35 64 34.3286 64 33.5C 64 32.6714 64.6716 32 65.5 32C 66.3284 32 67 32.6714 67 33.5Z"/>
<path  d="M 75 33.5C 75 34.3286 74.3284 35 73.5 35C 72.6716 35 72 34.3286 72 33.5C 72 32.6714 72.6716 32 73.5 32C 74.3284 32 75 32.6714 75 33.5Z"/>
<path  d="M 81.5 35C 82.3284 35 83 34.3286 83 33.5C 83 32.6714 82.3284 32 81.5 32C 80.6716 32 80 32.6714 80 33.5C 80 34.3286 80.6716 35 81.5 35Z"/>
<path  d="M 91 33.5C 91 34.3286 90.3284 35 89.5 35C 88.6716 35 88 34.3286 88 33.5C 88 32.6714 88.6716 32 89.5 32C 90.3284 32 91 32.6714 91 33.5Z"/>
<path  d="M 67 41.5C 67 42.3286 66.3284 43 65.5 43C 64.6716 43 64 42.3286 64 41.5C 64 40.6714 64.6716 40 65.5 40C 66.3284 40 67 40.6714 67 41.5Z"/>
<path  d="M 75 41.5C 75 42.3286 74.3284 43 73.5 43C 72.6716 43 72 42.3286 72 41.5C 72 40.6714 72.6716 40 73.5 40C 74.3284 40 75 40.6714 75 41.5Z"/>
<path  d="M 81.5 43C 82.3284 43 83 42.3286 83 41.5C 83 40.6714 82.3284 40 81.5 40C 80.6716 40 80 40.6714 80 41.5C 80 42.3286 80.6716 43 81.5 43Z"/>
<path  d="M 91 41.5C 91 42.3286 90.3284 43 89.5 43C 88.6716 43 88 42.3286 88 41.5C 88 40.6714 88.6716 40 89.5 40C 90.3284 40 91 40.6714 91 41.5Z"/>
<path  d="M 65.5 51C 66.3284 51 67 50.3286 67 49.5C 67 48.6714 66.3284 48 65.5 48C 64.6716 48 64 48.6714 64 49.5C 64 50.3286 64.6716 51 65.5 51Z"/>
<path  d="M 73.5 51C 74.3284 51 75 50.3286 75 49.5C 75 48.6714 74.3284 48 73.5 48C 72.6716 48 72 48.6714 72 49.5C 72 50.3286 72.6716 51 73.5 51Z"/>
<path  d="M 83 49.5C 83 50.3286 82.3284 51 81.5 51C 80.6716 51 80 50.3286 80 49.5C 80 48.6714 80.6716 48 81.5 48C 82.3284 48 83 48.6714 83 49.5Z"/>
<path  d="M 89.5 51C 90.3284 51 91 50.3286 91 49.5C 91 48.6714 90.3284 48 89.5 48C 88.6716 48 88 48.6714 88 49.5C 88 50.3286 88.6716 51 89.5 51Z"/>
<path  d="M 67 57.5C 67 58.3286 66.3284 59 65.5 59C 64.6716 59 64 58.3286 64 57.5C 64 56.6714 64.6716 56 65.5 56C 66.3284 56 67 56.6714 67 57.5Z"/>
<path  d="M 75 57.5C 75 58.3286 74.3284 59 73.5 59C 72.6716 59 72 58.3286 72 57.5C 72 56.6714 72.6716 56 73.5 56C 74.3284 56 75 56.6714 75 57.5Z"/>
<path  d="M 81.5 59C 82.3284 59 83 58.3286 83 57.5C 83 56.6714 82.3284 56 81.5 56C 80.6716 56 80 56.6714 80 57.5C 80 58.3286 80.6716 59 81.5 59Z"/>
<path  d="M 91 57.5C 91 58.3286 90.3284 59 89.5 59C 88.6716 59 88 58.3286 88 57.5C 88 56.6714 88.6716 56 89.5 56C 90.3284 56 91 56.6714 91 57.5Z"/>
<path  d="M 97.5 35C 98.3284 35 99 34.3286 99 33.5C 99 32.6714 98.3284 32 97.5 32C 96.6716 32 96 32.6714 96 33.5C 96 34.3286 96.6716 35 97.5 35Z"/>
<path  d="M 105.5 35C 106.328 35 107 34.3286 107 33.5C 107 32.6714 106.328 32 105.5 32C 104.672 32 104 32.6714 104 33.5C 104 34.3286 104.672 35 105.5 35Z"/>
<path  d="M 115 33.5C 115 34.3286 114.328 35 113.5 35C 112.672 35 112 34.3286 112 33.5C 112 32.6714 112.672 32 113.5 32C 114.328 32 115 32.6714 115 33.5Z"/>
<path  d="M 121.5 35C 122.328 35 123 34.3286 123 33.5C 123 32.6714 122.328 32 121.5 32C 120.672 32 120 32.6714 120 33.5C 120 34.3286 120.672 35 121.5 35Z"/>
<path  d="M 97.5 43C 98.3284 43 99 42.3286 99 41.5C 99 40.6714 98.3284 40 97.5 40C 96.6716 40 96 40.6714 96 41.5C 96 42.3286 96.6716 43 97.5 43Z"/>
<path  d="M 105.5 43C 106.328 43 107 42.3286 107 41.5C 107 40.6714 106.328 40 105.5 40C 104.672 40 104 40.6714 104 41.5C 104 42.3286 104.672 43 105.5 43Z"/>
<path  d="M 115 41.5C 115 42.3286 114.328 43 113.5 43C 112.672 43 112 42.3286 112 41.5C 112 40.6714 112.672 40 113.5 40C 114.328 40 115 40.6714 115 41.5Z"/>
<path  d="M 121.5 43C 122.328 43 123 42.3286 123 41.5C 123 40.6714 122.328 40 121.5 40C 120.672 40 120 40.6714 120 41.5C 120 42.3286 120.672 43 121.5 43Z"/>
<path  d="M 99 49.5C 99 50.3286 98.3284 51 97.5 51C 96.6716 51 96 50.3286 96 49.5C 96 48.6714 96.6716 48 97.5 48C 98.3284 48 99 48.6714 99 49.5Z"/>
<path  d="M 107 49.5C 107 50.3286 106.328 51 105.5 51C 104.672 51 104 50.3286 104 49.5C 104 48.6714 104.672 48 105.5 48C 106.328 48 107 48.6714 107 49.5Z"/>
<path  d="M 113.5 51C 114.328 51 115 50.3286 115 49.5C 115 48.6714 114.328 48 113.5 48C 112.672 48 112 48.6714 112 49.5C 112 50.3286 112.672 51 113.5 51Z"/>
<path  d="M 123 49.5C 123 50.3286 122.328 51 121.5 51C 120.672 51 120 50.3286 120 49.5C 120 48.6714 120.672 48 121.5 48C 122.328 48 123 48.6714 123 49.5Z"/>
<path  d="M 97.5 59C 98.3284 59 99 58.3286 99 57.5C 99 56.6714 98.3284 56 97.5 56C 96.6716 56 96 56.6714 96 57.5C 96 58.3286 96.6716 59 97.5 59Z"/>
<path  d="M 105.5 59C 106.328 59 107 58.3286 107 57.5C 107 56.6714 106.328 56 105.5 56C 104.672 56 104 56.6714 104 57.5C 104 58.3286 104.672 59 105.5 59Z"/>
<path  d="M 115 57.5C 115 58.3286 114.328 59 113.5 59C 112.672 59 112 58.3286 112 57.5C 112 56.6714 112.672 56 113.5 56C 114.328 56 115 56.6714 115 57.5Z"/>
<path  d="M 121.5 59C 122.328 59 123 58.3286 123 57.5C 123 56.6714 122.328 56 121.5 56C 120.672 56 120 56.6714 120 57.5C 120 58.3286 120.672 59 121.5 59Z"/>
<path  d="M 131 33.5C 131 34.3286 130.328 35 129.5 35C 128.672 35 128 34.3286 128 33.5C 128 32.6714 128.672 32 129.5 32C 130.328 32 131 32.6714 131 33.5Z"/>
<path  d="M 139 33.5C 139 34.3286 138.328 35 137.5 35C 136.672 35 136 34.3286 136 33.5C 136 32.6714 136.672 32 137.5 32C 138.328 32 139 32.6714 139 33.5Z"/>
<path  d="M 145.5 35C 146.328 35 147 34.3286 147 33.5C 147 32.6714 146.328 32 145.5 32C 144.672 32 144 32.6714 144 33.5C 144 34.3286 144.672 35 145.5 35Z"/>
<path  d="M 155 33.5C 155 34.3286 154.328 35 153.5 35C 152.672 35 152 34.3286 152 33.5C 152 32.6714 152.672 32 153.5 32C 154.328 32 155 32.6714 155 33.5Z"/>
<path  d="M 131 41.5C 131 42.3286 130.328 43 129.5 43C 128.672 43 128 42.3286 128 41.5C 128 40.6714 128.672 40 129.5 40C 130.328 40 131 40.6714 131 41.5Z"/>
<path  d="M 139 41.5C 139 42.3286 138.328 43 137.5 43C 136.672 43 136 42.3286 136 41.5C 136 40.6714 136.672 40 137.5 40C 138.328 40 139 40.6714 139 41.5Z"/>
<path  d="M 145.5 43C 146.328 43 147 42.3286 147 41.5C 147 40.6714 146.328 40 145.5 40C 144.672 40 144 40.6714 144 41.5C 144 42.3286 144.672 43 145.5 43Z"/>
<path  d="M 155 41.5C 155 42.3286 154.328 43 153.5 43C 152.672 43 152 42.3286 152 41.5C 152 40.6714 152.672 40 153.5 40C 154.328 40 155 40.6714 155 41.5Z"/>
<path  d="M 129.5 51C 130.328 51 131 50.3286 131 49.5C 131 48.6714 130.328 48 129.5 48C 128.672 48 128 48.6714 128 49.5C 128 50.3286 128.672 51 129.5 51Z"/>
<path  d="M 137.5 51C 138.328 51 139 50.3286 139 49.5C 139 48.6714 138.328 48 137.5 48C 136.672 48 136 48.6714 136 49.5C 136 50.3286 136.672 51 137.5 51Z"/>
<path  d="M 147 49.5C 147 50.3286 146.328 51 145.5 51C 144.672 51 144 50.3286 144 49.5C 144 48.6714 144.672 48 145.5 48C 146.328 48 147 48.6714 147 49.5Z"/>
<path  d="M 153.5 51C 154.328 51 155 50.3286 155 49.5C 155 48.6714 154.328 48 153.5 48C 152.672 48 152 48.6714 152 49.5C 152 50.3286 152.672 51 153.5 51Z"/>
<path  d="M 131 57.5C 131 58.3286 130.328 59 129.5 59C 128.672 59 128 58.3286 128 57.5C 128 56.6714 128.672 56 129.5 56C 130.328 56 131 56.6714 131 57.5Z"/>
<path  d="M 139 57.5C 139 58.3286 138.328 59 137.5 59C 136.672 59 136 58.3286 136 57.5C 136 56.6714 136.672 56 137.5 56C 138.328 56 139 56.6714 139 57.5Z"/>
<path  d="M 145.5 59C 146.328 59 147 58.3286 147 57.5C 147 56.6714 146.328 56 145.5 56C 144.672 56 144 56.6714 144 57.5C 144 58.3286 144.672 59 145.5 59Z"/>
<path  d="M 155 57.5C 155 58.3286 154.328 59 153.5 59C 152.672 59 152 58.3286 152 57.5C 152 56.6714 152.672 56 153.5 56C 154.328 56 155 56.6714 155 57.5Z"/>
<path  d="M 1.5 67C 2.32843 67 3 66.3286 3 65.5C 3 64.6714 2.32843 64 1.5 64C 0.67157 64 0 64.6714 0 65.5C 0 66.3286 0.67157 67 1.5 67Z"/>
<path  d="M 9.5 67C 10.3284 67 11 66.3286 11 65.5C 11 64.6714 10.3284 64 9.5 64C 8.67157 64 8 64.6714 8 65.5C 8 66.3286 8.67157 67 9.5 67Z"/>
<path  d="M 19 65.5C 19 66.3286 18.3284 67 17.5 67C 16.6716 67 16 66.3286 16 65.5C 16 64.6714 16.6716 64 17.5 64C 18.3284 64 19 64.6714 19 65.5Z"/>
<path  d="M 25.5 67C 26.3284 67 27 66.3286 27 65.5C 27 64.6714 26.3284 64 25.5 64C 24.6716 64 24 64.6714 24 65.5C 24 66.3286 24.6716 67 25.5 67Z"/>
<path  d="M 1.5 75C 2.32843 75 3 74.3286 3 73.5C 3 72.6714 2.32843 72 1.5 72C 0.67157 72 0 72.6714 0 73.5C 0 74.3286 0.67157 75 1.5 75Z"/>
<path  d="M 9.5 75C 10.3284 75 11 74.3286 11 73.5C 11 72.6714 10.3284 72 9.5 72C 8.67157 72 8 72.6714 8 73.5C 8 74.3286 8.67157 75 9.5 75Z"/>
<path  d="M 19 73.5C 19 74.3286 18.3284 75 17.5 75C 16.6716 75 16 74.3286 16 73.5C 16 72.6714 16.6716 72 17.5 72C 18.3284 72 19 72.6714 19 73.5Z"/>
<path  d="M 25.5 75C 26.3284 75 27 74.3286 27 73.5C 27 72.6714 26.3284 72 25.5 72C 24.6716 72 24 72.6714 24 73.5C 24 74.3286 24.6716 75 25.5 75Z"/>
<path  d="M 3 81.5C 3 82.3286 2.32843 83 1.5 83C 0.67157 83 0 82.3286 0 81.5C 0 80.6714 0.67157 80 1.5 80C 2.32843 80 3 80.6714 3 81.5Z"/>
<path  d="M 11 81.5C 11 82.3286 10.3284 83 9.5 83C 8.67157 83 8 82.3286 8 81.5C 8 80.6714 8.67157 80 9.5 80C 10.3284 80 11 80.6714 11 81.5Z"/>
<path  d="M 17.5 83C 18.3284 83 19 82.3286 19 81.5C 19 80.6714 18.3284 80 17.5 80C 16.6716 80 16 80.6714 16 81.5C 16 82.3286 16.6716 83 17.5 83Z"/>
<path  d="M 27 81.5C 27 82.3286 26.3284 83 25.5 83C 24.6716 83 24 82.3286 24 81.5C 24 80.6714 24.6716 80 25.5 80C 26.3284 80 27 80.6714 27 81.5Z"/>
<path  d="M 1.5 91C 2.32843 91 3 90.3286 3 89.5C 3 88.6714 2.32843 88 1.5 88C 0.67157 88 0 88.6714 0 89.5C 0 90.3286 0.67157 91 1.5 91Z"/>
<path  d="M 9.5 91C 10.3284 91 11 90.3286 11 89.5C 11 88.6714 10.3284 88 9.5 88C 8.67157 88 8 88.6714 8 89.5C 8 90.3286 8.67157 91 9.5 91Z"/>
<path  d="M 19 89.5C 19 90.3286 18.3284 91 17.5 91C 16.6716 91 16 90.3286 16 89.5C 16 88.6714 16.6716 88 17.5 88C 18.3284 88 19 88.6714 19 89.5Z"/>
<path  d="M 25.5 91C 26.3284 91 27 90.3286 27 89.5C 27 88.6714 26.3284 88 25.5 88C 24.6716 88 24 88.6714 24 89.5C 24 90.3286 24.6716 91 25.5 91Z"/>
<path  d="M 35 65.5C 35 66.3286 34.3284 67 33.5 67C 32.6716 67 32 66.3286 32 65.5C 32 64.6714 32.6716 64 33.5 64C 34.3284 64 35 64.6714 35 65.5Z"/>
<path  d="M 43 65.5C 43 66.3286 42.3284 67 41.5 67C 40.6716 67 40 66.3286 40 65.5C 40 64.6714 40.6716 64 41.5 64C 42.3284 64 43 64.6714 43 65.5Z"/>
<path  d="M 49.5 67C 50.3284 67 51 66.3286 51 65.5C 51 64.6714 50.3284 64 49.5 64C 48.6716 64 48 64.6714 48 65.5C 48 66.3286 48.6716 67 49.5 67Z"/>
<path  d="M 59 65.5C 59 66.3286 58.3284 67 57.5 67C 56.6716 67 56 66.3286 56 65.5C 56 64.6714 56.6716 64 57.5 64C 58.3284 64 59 64.6714 59 65.5Z"/>
<path  d="M 35 73.5C 35 74.3286 34.3284 75 33.5 75C 32.6716 75 32 74.3286 32 73.5C 32 72.6714 32.6716 72 33.5 72C 34.3284 72 35 72.6714 35 73.5Z"/>
<path  d="M 43 73.5C 43 74.3286 42.3284 75 41.5 75C 40.6716 75 40 74.3286 40 73.5C 40 72.6714 40.6716 72 41.5 72C 42.3284 72 43 72.6714 43 73.5Z"/>
<path  d="M 49.5 75C 50.3284 75 51 74.3286 51 73.5C 51 72.6714 50.3284 72 49.5 72C 48.6716 72 48 72.6714 48 73.5C 48 74.3286 48.6716 75 49.5 75Z"/>
<path  d="M 59 73.5C 59 74.3286 58.3284 75 57.5 75C 56.6716 75 56 74.3286 56 73.5C 56 72.6714 56.6716 72 57.5 72C 58.3284 72 59 72.6714 59 73.5Z"/>
<path  d="M 33.5 83C 34.3284 83 35 82.3286 35 81.5C 35 80.6714 34.3284 80 33.5 80C 32.6716 80 32 80.6714 32 81.5C 32 82.3286 32.6716 83 33.5 83Z"/>
<path  d="M 41.5 83C 42.3284 83 43 82.3286 43 81.5C 43 80.6714 42.3284 80 41.5 80C 40.6716 80 40 80.6714 40 81.5C 40 82.3286 40.6716 83 41.5 83Z"/>
<path  d="M 51 81.5C 51 82.3286 50.3284 83 49.5 83C 48.6716 83 48 82.3286 48 81.5C 48 80.6714 48.6716 80 49.5 80C 50.3284 80 51 80.6714 51 81.5Z"/>
<path  d="M 57.5 83C 58.3284 83 59 82.3286 59 81.5C 59 80.6714 58.3284 80 57.5 80C 56.6716 80 56 80.6714 56 81.5C 56 82.3286 56.6716 83 57.5 83Z"/>
<path  d="M 35 89.5C 35 90.3286 34.3284 91 33.5 91C 32.6716 91 32 90.3286 32 89.5C 32 88.6714 32.6716 88 33.5 88C 34.3284 88 35 88.6714 35 89.5Z"/>
<path  d="M 43 89.5C 43 90.3286 42.3284 91 41.5 91C 40.6716 91 40 90.3286 40 89.5C 40 88.6714 40.6716 88 41.5 88C 42.3284 88 43 88.6714 43 89.5Z"/>
<path  d="M 49.5 91C 50.3284 91 51 90.3286 51 89.5C 51 88.6714 50.3284 88 49.5 88C 48.6716 88 48 88.6714 48 89.5C 48 90.3286 48.6716 91 49.5 91Z"/>
<path  d="M 59 89.5C 59 90.3286 58.3284 91 57.5 91C 56.6716 91 56 90.3286 56 89.5C 56 88.6714 56.6716 88 57.5 88C 58.3284 88 59 88.6714 59 89.5Z"/>
<path  d="M 65.5 67C 66.3284 67 67 66.3286 67 65.5C 67 64.6714 66.3284 64 65.5 64C 64.6716 64 64 64.6714 64 65.5C 64 66.3286 64.6716 67 65.5 67Z"/>
<path  d="M 73.5 67C 74.3284 67 75 66.3286 75 65.5C 75 64.6714 74.3284 64 73.5 64C 72.6716 64 72 64.6714 72 65.5C 72 66.3286 72.6716 67 73.5 67Z"/>
<path  d="M 83 65.5C 83 66.3286 82.3284 67 81.5 67C 80.6716 67 80 66.3286 80 65.5C 80 64.6714 80.6716 64 81.5 64C 82.3284 64 83 64.6714 83 65.5Z"/>
<path  d="M 89.5 67C 90.3284 67 91 66.3286 91 65.5C 91 64.6714 90.3284 64 89.5 64C 88.6716 64 88 64.6714 88 65.5C 88 66.3286 88.6716 67 89.5 67Z"/>
<path  d="M 65.5 75C 66.3284 75 67 74.3286 67 73.5C 67 72.6714 66.3284 72 65.5 72C 64.6716 72 64 72.6714 64 73.5C 64 74.3286 64.6716 75 65.5 75Z"/>
<path  d="M 73.5 75C 74.3284 75 75 74.3286 75 73.5C 75 72.6714 74.3284 72 73.5 72C 72.6716 72 72 72.6714 72 73.5C 72 74.3286 72.6716 75 73.5 75Z"/>
<path  d="M 83 73.5C 83 74.3286 82.3284 75 81.5 75C 80.6716 75 80 74.3286 80 73.5C 80 72.6714 80.6716 72 81.5 72C 82.3284 72 83 72.6714 83 73.5Z"/>
<path  d="M 89.5 75C 90.3284 75 91 74.3286 91 73.5C 91 72.6714 90.3284 72 89.5 72C 88.6716 72 88 72.6714 88 73.5C 88 74.3286 88.6716 75 89.5 75Z"/>
<path  d="M 67 81.5C 67 82.3286 66.3284 83 65.5 83C 64.6716 83 64 82.3286 64 81.5C 64 80.6714 64.6716 80 65.5 80C 66.3284 80 67 80.6714 67 81.5Z"/>
<path  d="M 75 81.5C 75 82.3286 74.3284 83 73.5 83C 72.6716 83 72 82.3286 72 81.5C 72 80.6714 72.6716 80 73.5 80C 74.3284 80 75 80.6714 75 81.5Z"/>
<path  d="M 81.5 83C 82.3284 83 83 82.3286 83 81.5C 83 80.6714 82.3284 80 81.5 80C 80.6716 80 80 80.6714 80 81.5C 80 82.3286 80.6716 83 81.5 83Z"/>
<path  d="M 91 81.5C 91 82.3286 90.3284 83 89.5 83C 88.6716 83 88 82.3286 88 81.5C 88 80.6714 88.6716 80 89.5 80C 90.3284 80 91 80.6714 91 81.5Z"/>
<path  d="M 65.5 91C 66.3284 91 67 90.3286 67 89.5C 67 88.6714 66.3284 88 65.5 88C 64.6716 88 64 88.6714 64 89.5C 64 90.3286 64.6716 91 65.5 91Z"/>
<path  d="M 73.5 91C 74.3284 91 75 90.3286 75 89.5C 75 88.6714 74.3284 88 73.5 88C 72.6716 88 72 88.6714 72 89.5C 72 90.3286 72.6716 91 73.5 91Z"/>
<path  d="M 83 89.5C 83 90.3286 82.3284 91 81.5 91C 80.6716 91 80 90.3286 80 89.5C 80 88.6714 80.6716 88 81.5 88C 82.3284 88 83 88.6714 83 89.5Z"/>
<path  d="M 89.5 91C 90.3284 91 91 90.3286 91 89.5C 91 88.6714 90.3284 88 89.5 88C 88.6716 88 88 88.6714 88 89.5C 88 90.3286 88.6716 91 89.5 91Z"/>
<path  d="M 99 65.5C 99 66.3286 98.3284 67 97.5 67C 96.6716 67 96 66.3286 96 65.5C 96 64.6714 96.6716 64 97.5 64C 98.3284 64 99 64.6714 99 65.5Z"/>
<path  d="M 107 65.5C 107 66.3286 106.328 67 105.5 67C 104.672 67 104 66.3286 104 65.5C 104 64.6714 104.672 64 105.5 64C 106.328 64 107 64.6714 107 65.5Z"/>
<path  d="M 113.5 67C 114.328 67 115 66.3286 115 65.5C 115 64.6714 114.328 64 113.5 64C 112.672 64 112 64.6714 112 65.5C 112 66.3286 112.672 67 113.5 67Z"/>
<path  d="M 123 65.5C 123 66.3286 122.328 67 121.5 67C 120.672 67 120 66.3286 120 65.5C 120 64.6714 120.672 64 121.5 64C 122.328 64 123 64.6714 123 65.5Z"/>
<path  d="M 99 73.5C 99 74.3286 98.3284 75 97.5 75C 96.6716 75 96 74.3286 96 73.5C 96 72.6714 96.6716 72 97.5 72C 98.3284 72 99 72.6714 99 73.5Z"/>
<path  d="M 107 73.5C 107 74.3286 106.328 75 105.5 75C 104.672 75 104 74.3286 104 73.5C 104 72.6714 104.672 72 105.5 72C 106.328 72 107 72.6714 107 73.5Z"/>
<path  d="M 113.5 75C 114.328 75 115 74.3286 115 73.5C 115 72.6714 114.328 72 113.5 72C 112.672 72 112 72.6714 112 73.5C 112 74.3286 112.672 75 113.5 75Z"/>
<path  d="M 123 73.5C 123 74.3286 122.328 75 121.5 75C 120.672 75 120 74.3286 120 73.5C 120 72.6714 120.672 72 121.5 72C 122.328 72 123 72.6714 123 73.5Z"/>
<path  d="M 97.5 83C 98.3284 83 99 82.3286 99 81.5C 99 80.6714 98.3284 80 97.5 80C 96.6716 80 96 80.6714 96 81.5C 96 82.3286 96.6716 83 97.5 83Z"/>
<path  d="M 105.5 83C 106.328 83 107 82.3286 107 81.5C 107 80.6714 106.328 80 105.5 80C 104.672 80 104 80.6714 104 81.5C 104 82.3286 104.672 83 105.5 83Z"/>
<path  d="M 115 81.5C 115 82.3286 114.328 83 113.5 83C 112.672 83 112 82.3286 112 81.5C 112 80.6714 112.672 80 113.5 80C 114.328 80 115 80.6714 115 81.5Z"/>
<path  d="M 121.5 83C 122.328 83 123 82.3286 123 81.5C 123 80.6714 122.328 80 121.5 80C 120.672 80 120 80.6714 120 81.5C 120 82.3286 120.672 83 121.5 83Z"/>
<path  d="M 99 89.5C 99 90.3286 98.3284 91 97.5 91C 96.6716 91 96 90.3286 96 89.5C 96 88.6714 96.6716 88 97.5 88C 98.3284 88 99 88.6714 99 89.5Z"/>
<path  d="M 107 89.5C 107 90.3286 106.328 91 105.5 91C 104.672 91 104 90.3286 104 89.5C 104 88.6714 104.672 88 105.5 88C 106.328 88 107 88.6714 107 89.5Z"/>
<path  d="M 113.5 91C 114.328 91 115 90.3286 115 89.5C 115 88.6714 114.328 88 113.5 88C 112.672 88 112 88.6714 112 89.5C 112 90.3286 112.672 91 113.5 91Z"/>
<path  d="M 123 89.5C 123 90.3286 122.328 91 121.5 91C 120.672 91 120 90.3286 120 89.5C 120 88.6714 120.672 88 121.5 88C 122.328 88 123 88.6714 123 89.5Z"/>
<path  d="M 129.5 67C 130.328 67 131 66.3286 131 65.5C 131 64.6714 130.328 64 129.5 64C 128.672 64 128 64.6714 128 65.5C 128 66.3286 128.672 67 129.5 67Z"/>
<path  d="M 137.5 67C 138.328 67 139 66.3286 139 65.5C 139 64.6714 138.328 64 137.5 64C 136.672 64 136 64.6714 136 65.5C 136 66.3286 136.672 67 137.5 67Z"/>
<path  d="M 147 65.5C 147 66.3286 146.328 67 145.5 67C 144.672 67 144 66.3286 144 65.5C 144 64.6714 144.672 64 145.5 64C 146.328 64 147 64.6714 147 65.5Z"/>
<path  d="M 153.5 67C 154.328 67 155 66.3286 155 65.5C 155 64.6714 154.328 64 153.5 64C 152.672 64 152 64.6714 152 65.5C 152 66.3286 152.672 67 153.5 67Z"/>
<path  d="M 129.5 75C 130.328 75 131 74.3286 131 73.5C 131 72.6714 130.328 72 129.5 72C 128.672 72 128 72.6714 128 73.5C 128 74.3286 128.672 75 129.5 75Z"/>
<path  d="M 137.5 75C 138.328 75 139 74.3286 139 73.5C 139 72.6714 138.328 72 137.5 72C 136.672 72 136 72.6714 136 73.5C 136 74.3286 136.672 75 137.5 75Z"/>
<path  d="M 147 73.5C 147 74.3286 146.328 75 145.5 75C 144.672 75 144 74.3286 144 73.5C 144 72.6714 144.672 72 145.5 72C 146.328 72 147 72.6714 147 73.5Z"/>
<path  d="M 153.5 75C 154.328 75 155 74.3286 155 73.5C 155 72.6714 154.328 72 153.5 72C 152.672 72 152 72.6714 152 73.5C 152 74.3286 152.672 75 153.5 75Z"/>
<path  d="M 131 81.5C 131 82.3286 130.328 83 129.5 83C 128.672 83 128 82.3286 128 81.5C 128 80.6714 128.672 80 129.5 80C 130.328 80 131 80.6714 131 81.5Z"/>
<path  d="M 139 81.5C 139 82.3286 138.328 83 137.5 83C 136.672 83 136 82.3286 136 81.5C 136 80.6714 136.672 80 137.5 80C 138.328 80 139 80.6714 139 81.5Z"/>
<path  d="M 145.5 83C 146.328 83 147 82.3286 147 81.5C 147 80.6714 146.328 80 145.5 80C 144.672 80 144 80.6714 144 81.5C 144 82.3286 144.672 83 145.5 83Z"/>
<path  d="M 155 81.5C 155 82.3286 154.328 83 153.5 83C 152.672 83 152 82.3286 152 81.5C 152 80.6714 152.672 80 153.5 80C 154.328 80 155 80.6714 155 81.5Z"/>
<path  d="M 129.5 91C 130.328 91 131 90.3286 131 89.5C 131 88.6714 130.328 88 129.5 88C 128.672 88 128 88.6714 128 89.5C 128 90.3286 128.672 91 129.5 91Z"/>
<path  d="M 137.5 91C 138.328 91 139 90.3286 139 89.5C 139 88.6714 138.328 88 137.5 88C 136.672 88 136 88.6714 136 89.5C 136 90.3286 136.672 91 137.5 91Z"/>
<path  d="M 147 89.5C 147 90.3286 146.328 91 145.5 91C 144.672 91 144 90.3286 144 89.5C 144 88.6714 144.672 88 145.5 88C 146.328 88 147 88.6714 147 89.5Z"/>
<path  d="M 153.5 91C 154.328 91 155 90.3286 155 89.5C 155 88.6714 154.328 88 153.5 88C 152.672 88 152 88.6714 152 89.5C 152 90.3286 152.672 91 153.5 91Z"/>
<path  d="M 3 97.5C 3 98.3286 2.32843 99 1.5 99C 0.67157 99 0 98.3286 0 97.5C 0 96.6714 0.67157 96 1.5 96C 2.32843 96 3 96.6714 3 97.5Z"/>
<path  d="M 11 97.5C 11 98.3286 10.3284 99 9.5 99C 8.67157 99 8 98.3286 8 97.5C 8 96.6714 8.67157 96 9.5 96C 10.3284 96 11 96.6714 11 97.5Z"/>
<path  d="M 17.5 99C 18.3284 99 19 98.3286 19 97.5C 19 96.6714 18.3284 96 17.5 96C 16.6716 96 16 96.6714 16 97.5C 16 98.3286 16.6716 99 17.5 99Z"/>
<path  d="M 27 97.5C 27 98.3286 26.3284 99 25.5 99C 24.6716 99 24 98.3286 24 97.5C 24 96.6714 24.6716 96 25.5 96C 26.3284 96 27 96.6714 27 97.5Z"/>
<path  d="M 3 105.5C 3 106.329 2.32843 107 1.5 107C 0.67157 107 0 106.329 0 105.5C 0 104.671 0.67157 104 1.5 104C 2.32843 104 3 104.671 3 105.5Z"/>
<path  d="M 11 105.5C 11 106.329 10.3284 107 9.5 107C 8.67157 107 8 106.329 8 105.5C 8 104.671 8.67157 104 9.5 104C 10.3284 104 11 104.671 11 105.5Z"/>
<path  d="M 17.5 107C 18.3284 107 19 106.329 19 105.5C 19 104.671 18.3284 104 17.5 104C 16.6716 104 16 104.671 16 105.5C 16 106.329 16.6716 107 17.5 107Z"/>
<path  d="M 27 105.5C 27 106.329 26.3284 107 25.5 107C 24.6716 107 24 106.329 24 105.5C 24 104.671 24.6716 104 25.5 104C 26.3284 104 27 104.671 27 105.5Z"/>
<path  d="M 1.5 115C 2.32843 115 3 114.329 3 113.5C 3 112.671 2.32843 112 1.5 112C 0.67157 112 0 112.671 0 113.5C 0 114.329 0.67157 115 1.5 115Z"/>
<path  d="M 9.5 115C 10.3284 115 11 114.329 11 113.5C 11 112.671 10.3284 112 9.5 112C 8.67157 112 8 112.671 8 113.5C 8 114.329 8.67157 115 9.5 115Z"/>
<path  d="M 19 113.5C 19 114.329 18.3284 115 17.5 115C 16.6716 115 16 114.329 16 113.5C 16 112.671 16.6716 112 17.5 112C 18.3284 112 19 112.671 19 113.5Z"/>
<path  d="M 25.5 115C 26.3284 115 27 114.329 27 113.5C 27 112.671 26.3284 112 25.5 112C 24.6716 112 24 112.671 24 113.5C 24 114.329 24.6716 115 25.5 115Z"/>
<path  d="M 3 121.5C 3 122.329 2.32843 123 1.5 123C 0.67157 123 0 122.329 0 121.5C 0 120.671 0.67157 120 1.5 120C 2.32843 120 3 120.671 3 121.5Z"/>
<path  d="M 11 121.5C 11 122.329 10.3284 123 9.5 123C 8.67157 123 8 122.329 8 121.5C 8 120.671 8.67157 120 9.5 120C 10.3284 120 11 120.671 11 121.5Z"/>
<path  d="M 17.5 123C 18.3284 123 19 122.329 19 121.5C 19 120.671 18.3284 120 17.5 120C 16.6716 120 16 120.671 16 121.5C 16 122.329 16.6716 123 17.5 123Z"/>
<path  d="M 27 121.5C 27 122.329 26.3284 123 25.5 123C 24.6716 123 24 122.329 24 121.5C 24 120.671 24.6716 120 25.5 120C 26.3284 120 27 120.671 27 121.5Z"/>
<path  d="M 33.5 99C 34.3284 99 35 98.3286 35 97.5C 35 96.6714 34.3284 96 33.5 96C 32.6716 96 32 96.6714 32 97.5C 32 98.3286 32.6716 99 33.5 99Z"/>
<path  d="M 41.5 99C 42.3284 99 43 98.3286 43 97.5C 43 96.6714 42.3284 96 41.5 96C 40.6716 96 40 96.6714 40 97.5C 40 98.3286 40.6716 99 41.5 99Z"/>
<path  d="M 51 97.5C 51 98.3286 50.3284 99 49.5 99C 48.6716 99 48 98.3286 48 97.5C 48 96.6714 48.6716 96 49.5 96C 50.3284 96 51 96.6714 51 97.5Z"/>
<path  d="M 57.5 99C 58.3284 99 59 98.3286 59 97.5C 59 96.6714 58.3284 96 57.5 96C 56.6716 96 56 96.6714 56 97.5C 56 98.3286 56.6716 99 57.5 99Z"/>
<path  d="M 33.5 107C 34.3284 107 35 106.329 35 105.5C 35 104.671 34.3284 104 33.5 104C 32.6716 104 32 104.671 32 105.5C 32 106.329 32.6716 107 33.5 107Z"/>
<path  d="M 41.5 107C 42.3284 107 43 106.329 43 105.5C 43 104.671 42.3284 104 41.5 104C 40.6716 104 40 104.671 40 105.5C 40 106.329 40.6716 107 41.5 107Z"/>
<path  d="M 51 105.5C 51 106.329 50.3284 107 49.5 107C 48.6716 107 48 106.329 48 105.5C 48 104.671 48.6716 104 49.5 104C 50.3284 104 51 104.671 51 105.5Z"/>
<path  d="M 57.5 107C 58.3284 107 59 106.329 59 105.5C 59 104.671 58.3284 104 57.5 104C 56.6716 104 56 104.671 56 105.5C 56 106.329 56.6716 107 57.5 107Z"/>
<path  d="M 35 113.5C 35 114.329 34.3284 115 33.5 115C 32.6716 115 32 114.329 32 113.5C 32 112.671 32.6716 112 33.5 112C 34.3284 112 35 112.671 35 113.5Z"/>
<path  d="M 43 113.5C 43 114.329 42.3284 115 41.5 115C 40.6716 115 40 114.329 40 113.5C 40 112.671 40.6716 112 41.5 112C 42.3284 112 43 112.671 43 113.5Z"/>
<path  d="M 49.5 115C 50.3284 115 51 114.329 51 113.5C 51 112.671 50.3284 112 49.5 112C 48.6716 112 48 112.671 48 113.5C 48 114.329 48.6716 115 49.5 115Z"/>
<path  d="M 59 113.5C 59 114.329 58.3284 115 57.5 115C 56.6716 115 56 114.329 56 113.5C 56 112.671 56.6716 112 57.5 112C 58.3284 112 59 112.671 59 113.5Z"/>
<path  d="M 33.5 123C 34.3284 123 35 122.329 35 121.5C 35 120.671 34.3284 120 33.5 120C 32.6716 120 32 120.671 32 121.5C 32 122.329 32.6716 123 33.5 123Z"/>
<path  d="M 41.5 123C 42.3284 123 43 122.329 43 121.5C 43 120.671 42.3284 120 41.5 120C 40.6716 120 40 120.671 40 121.5C 40 122.329 40.6716 123 41.5 123Z"/>
<path  d="M 51 121.5C 51 122.329 50.3284 123 49.5 123C 48.6716 123 48 122.329 48 121.5C 48 120.671 48.6716 120 49.5 120C 50.3284 120 51 120.671 51 121.5Z"/>
<path  d="M 57.5 123C 58.3284 123 59 122.329 59 121.5C 59 120.671 58.3284 120 57.5 120C 56.6716 120 56 120.671 56 121.5C 56 122.329 56.6716 123 57.5 123Z"/>
<path  d="M 67 97.5C 67 98.3286 66.3284 99 65.5 99C 64.6716 99 64 98.3286 64 97.5C 64 96.6714 64.6716 96 65.5 96C 66.3284 96 67 96.6714 67 97.5Z"/>
<path  d="M 75 97.5C 75 98.3286 74.3284 99 73.5 99C 72.6716 99 72 98.3286 72 97.5C 72 96.6714 72.6716 96 73.5 96C 74.3284 96 75 96.6714 75 97.5Z"/>
<path  d="M 81.5 99C 82.3284 99 83 98.3286 83 97.5C 83 96.6714 82.3284 96 81.5 96C 80.6716 96 80 96.6714 80 97.5C 80 98.3286 80.6716 99 81.5 99Z"/>
<path  d="M 91 97.5C 91 98.3286 90.3284 99 89.5 99C 88.6716 99 88 98.3286 88 97.5C 88 96.6714 88.6716 96 89.5 96C 90.3284 96 91 96.6714 91 97.5Z"/>
<path  d="M 67 105.5C 67 106.329 66.3284 107 65.5 107C 64.6716 107 64 106.329 64 105.5C 64 104.671 64.6716 104 65.5 104C 66.3284 104 67 104.671 67 105.5Z"/>
<path  d="M 75 105.5C 75 106.329 74.3284 107 73.5 107C 72.6716 107 72 106.329 72 105.5C 72 104.671 72.6716 104 73.5 104C 74.3284 104 75 104.671 75 105.5Z"/>
<path  d="M 81.5 107C 82.3284 107 83 106.329 83 105.5C 83 104.671 82.3284 104 81.5 104C 80.6716 104 80 104.671 80 105.5C 80 106.329 80.6716 107 81.5 107Z"/>
<path  d="M 91 105.5C 91 106.329 90.3284 107 89.5 107C 88.6716 107 88 106.329 88 105.5C 88 104.671 88.6716 104 89.5 104C 90.3284 104 91 104.671 91 105.5Z"/>
<path  d="M 65.5 115C 66.3284 115 67 114.329 67 113.5C 67 112.671 66.3284 112 65.5 112C 64.6716 112 64 112.671 64 113.5C 64 114.329 64.6716 115 65.5 115Z"/>
<path  d="M 73.5 115C 74.3284 115 75 114.329 75 113.5C 75 112.671 74.3284 112 73.5 112C 72.6716 112 72 112.671 72 113.5C 72 114.329 72.6716 115 73.5 115Z"/>
<path  d="M 83 113.5C 83 114.329 82.3284 115 81.5 115C 80.6716 115 80 114.329 80 113.5C 80 112.671 80.6716 112 81.5 112C 82.3284 112 83 112.671 83 113.5Z"/>
<path  d="M 89.5 115C 90.3284 115 91 114.329 91 113.5C 91 112.671 90.3284 112 89.5 112C 88.6716 112 88 112.671 88 113.5C 88 114.329 88.6716 115 89.5 115Z"/>
<path  d="M 67 121.5C 67 122.329 66.3284 123 65.5 123C 64.6716 123 64 122.329 64 121.5C 64 120.671 64.6716 120 65.5 120C 66.3284 120 67 120.671 67 121.5Z"/>
<path  d="M 75 121.5C 75 122.329 74.3284 123 73.5 123C 72.6716 123 72 122.329 72 121.5C 72 120.671 72.6716 120 73.5 120C 74.3284 120 75 120.671 75 121.5Z"/>
<path  d="M 81.5 123C 82.3284 123 83 122.329 83 121.5C 83 120.671 82.3284 120 81.5 120C 80.6716 120 80 120.671 80 121.5C 80 122.329 80.6716 123 81.5 123Z"/>
<path  d="M 91 121.5C 91 122.329 90.3284 123 89.5 123C 88.6716 123 88 122.329 88 121.5C 88 120.671 88.6716 120 89.5 120C 90.3284 120 91 120.671 91 121.5Z"/>
<path  d="M 97.5 99C 98.3284 99 99 98.3286 99 97.5C 99 96.6714 98.3284 96 97.5 96C 96.6716 96 96 96.6714 96 97.5C 96 98.3286 96.6716 99 97.5 99Z"/>
<path  d="M 105.5 99C 106.328 99 107 98.3286 107 97.5C 107 96.6714 106.328 96 105.5 96C 104.672 96 104 96.6714 104 97.5C 104 98.3286 104.672 99 105.5 99Z"/>
<path  d="M 115 97.5C 115 98.3286 114.328 99 113.5 99C 112.672 99 112 98.3286 112 97.5C 112 96.6714 112.672 96 113.5 96C 114.328 96 115 96.6714 115 97.5Z"/>
<path  d="M 121.5 99C 122.328 99 123 98.3286 123 97.5C 123 96.6714 122.328 96 121.5 96C 120.672 96 120 96.6714 120 97.5C 120 98.3286 120.672 99 121.5 99Z"/>
<path  d="M 97.5 107C 98.3284 107 99 106.329 99 105.5C 99 104.671 98.3284 104 97.5 104C 96.6716 104 96 104.671 96 105.5C 96 106.329 96.6716 107 97.5 107Z"/>
<path  d="M 105.5 107C 106.328 107 107 106.329 107 105.5C 107 104.671 106.328 104 105.5 104C 104.672 104 104 104.671 104 105.5C 104 106.329 104.672 107 105.5 107Z"/>
<path  d="M 115 105.5C 115 106.329 114.328 107 113.5 107C 112.672 107 112 106.329 112 105.5C 112 104.671 112.672 104 113.5 104C 114.328 104 115 104.671 115 105.5Z"/>
<path  d="M 121.5 107C 122.328 107 123 106.329 123 105.5C 123 104.671 122.328 104 121.5 104C 120.672 104 120 104.671 120 105.5C 120 106.329 120.672 107 121.5 107Z"/>
<path  d="M 99 113.5C 99 114.329 98.3284 115 97.5 115C 96.6716 115 96 114.329 96 113.5C 96 112.671 96.6716 112 97.5 112C 98.3284 112 99 112.671 99 113.5Z"/>
<path  d="M 107 113.5C 107 114.329 106.328 115 105.5 115C 104.672 115 104 114.329 104 113.5C 104 112.671 104.672 112 105.5 112C 106.328 112 107 112.671 107 113.5Z"/>
<path  d="M 113.5 115C 114.328 115 115 114.329 115 113.5C 115 112.671 114.328 112 113.5 112C 112.672 112 112 112.671 112 113.5C 112 114.329 112.672 115 113.5 115Z"/>
<path  d="M 123 113.5C 123 114.329 122.328 115 121.5 115C 120.672 115 120 114.329 120 113.5C 120 112.671 120.672 112 121.5 112C 122.328 112 123 112.671 123 113.5Z"/>
<path  d="M 97.5 123C 98.3284 123 99 122.329 99 121.5C 99 120.671 98.3284 120 97.5 120C 96.6716 120 96 120.671 96 121.5C 96 122.329 96.6716 123 97.5 123Z"/>
<path  d="M 105.5 123C 106.328 123 107 122.329 107 121.5C 107 120.671 106.328 120 105.5 120C 104.672 120 104 120.671 104 121.5C 104 122.329 104.672 123 105.5 123Z"/>
<path  d="M 115 121.5C 115 122.329 114.328 123 113.5 123C 112.672 123 112 122.329 112 121.5C 112 120.671 112.672 120 113.5 120C 114.328 120 115 120.671 115 121.5Z"/>
<path  d="M 121.5 123C 122.328 123 123 122.329 123 121.5C 123 120.671 122.328 120 121.5 120C 120.672 120 120 120.671 120 121.5C 120 122.329 120.672 123 121.5 123Z"/>
<path  d="M 131 97.5C 131 98.3286 130.328 99 129.5 99C 128.672 99 128 98.3286 128 97.5C 128 96.6714 128.672 96 129.5 96C 130.328 96 131 96.6714 131 97.5Z"/>
<path  d="M 139 97.5C 139 98.3286 138.328 99 137.5 99C 136.672 99 136 98.3286 136 97.5C 136 96.6714 136.672 96 137.5 96C 138.328 96 139 96.6714 139 97.5Z"/>
<path  d="M 145.5 99C 146.328 99 147 98.3286 147 97.5C 147 96.6714 146.328 96 145.5 96C 144.672 96 144 96.6714 144 97.5C 144 98.3286 144.672 99 145.5 99Z"/>
<path  d="M 155 97.5C 155 98.3286 154.328 99 153.5 99C 152.672 99 152 98.3286 152 97.5C 152 96.6714 152.672 96 153.5 96C 154.328 96 155 96.6714 155 97.5Z"/>
<path  d="M 131 105.5C 131 106.329 130.328 107 129.5 107C 128.672 107 128 106.329 128 105.5C 128 104.671 128.672 104 129.5 104C 130.328 104 131 104.671 131 105.5Z"/>
<path  d="M 139 105.5C 139 106.329 138.328 107 137.5 107C 136.672 107 136 106.329 136 105.5C 136 104.671 136.672 104 137.5 104C 138.328 104 139 104.671 139 105.5Z"/>
<path  d="M 145.5 107C 146.328 107 147 106.329 147 105.5C 147 104.671 146.328 104 145.5 104C 144.672 104 144 104.671 144 105.5C 144 106.329 144.672 107 145.5 107Z"/>
<path  d="M 155 105.5C 155 106.329 154.328 107 153.5 107C 152.672 107 152 106.329 152 105.5C 152 104.671 152.672 104 153.5 104C 154.328 104 155 104.671 155 105.5Z"/>
<path  d="M 129.5 115C 130.328 115 131 114.329 131 113.5C 131 112.671 130.328 112 129.5 112C 128.672 112 128 112.671 128 113.5C 128 114.329 128.672 115 129.5 115Z"/>
<path  d="M 137.5 115C 138.328 115 139 114.329 139 113.5C 139 112.671 138.328 112 137.5 112C 136.672 112 136 112.671 136 113.5C 136 114.329 136.672 115 137.5 115Z"/>
<path  d="M 147 113.5C 147 114.329 146.328 115 145.5 115C 144.672 115 144 114.329 144 113.5C 144 112.671 144.672 112 145.5 112C 146.328 112 147 112.671 147 113.5Z"/>
<path  d="M 153.5 115C 154.328 115 155 114.329 155 113.5C 155 112.671 154.328 112 153.5 112C 152.672 112 152 112.671 152 113.5C 152 114.329 152.672 115 153.5 115Z"/>
<path  d="M 131 121.5C 131 122.329 130.328 123 129.5 123C 128.672 123 128 122.329 128 121.5C 128 120.671 128.672 120 129.5 120C 130.328 120 131 120.671 131 121.5Z"/>
<path  d="M 139 121.5C 139 122.329 138.328 123 137.5 123C 136.672 123 136 122.329 136 121.5C 136 120.671 136.672 120 137.5 120C 138.328 120 139 120.671 139 121.5Z"/>
<path  d="M 145.5 123C 146.328 123 147 122.329 147 121.5C 147 120.671 146.328 120 145.5 120C 144.672 120 144 120.671 144 121.5C 144 122.329 144.672 123 145.5 123Z"/>
<path  d="M 155 121.5C 155 122.329 154.328 123 153.5 123C 152.672 123 152 122.329 152 121.5C 152 120.671 152.672 120 153.5 120C 154.328 120 155 120.671 155 121.5Z"/>
<path  d="M 1.5 131C 2.32843 131 3 130.329 3 129.5C 3 128.671 2.32843 128 1.5 128C 0.67157 128 0 128.671 0 129.5C 0 130.329 0.67157 131 1.5 131Z"/>
<path  d="M 9.5 131C 10.3284 131 11 130.329 11 129.5C 11 128.671 10.3284 128 9.5 128C 8.67157 128 8 128.671 8 129.5C 8 130.329 8.67157 131 9.5 131Z"/>
<path  d="M 19 129.5C 19 130.329 18.3284 131 17.5 131C 16.6716 131 16 130.329 16 129.5C 16 128.671 16.6716 128 17.5 128C 18.3284 128 19 128.671 19 129.5Z"/>
<path  d="M 25.5 131C 26.3284 131 27 130.329 27 129.5C 27 128.671 26.3284 128 25.5 128C 24.6716 128 24 128.671 24 129.5C 24 130.329 24.6716 131 25.5 131Z"/>
<path  d="M 1.5 139C 2.32843 139 3 138.329 3 137.5C 3 136.671 2.32843 136 1.5 136C 0.67157 136 0 136.671 0 137.5C 0 138.329 0.67157 139 1.5 139Z"/>
<path  d="M 9.5 139C 10.3284 139 11 138.329 11 137.5C 11 136.671 10.3284 136 9.5 136C 8.67157 136 8 136.671 8 137.5C 8 138.329 8.67157 139 9.5 139Z"/>
<path  d="M 19 137.5C 19 138.329 18.3284 139 17.5 139C 16.6716 139 16 138.329 16 137.5C 16 136.671 16.6716 136 17.5 136C 18.3284 136 19 136.671 19 137.5Z"/>
<path  d="M 25.5 139C 26.3284 139 27 138.329 27 137.5C 27 136.671 26.3284 136 25.5 136C 24.6716 136 24 136.671 24 137.5C 24 138.329 24.6716 139 25.5 139Z"/>
<path  d="M 3 145.5C 3 146.329 2.32843 147 1.5 147C 0.67157 147 0 146.329 0 145.5C 0 144.671 0.67157 144 1.5 144C 2.32843 144 3 144.671 3 145.5Z"/>
<path  d="M 11 145.5C 11 146.329 10.3284 147 9.5 147C 8.67157 147 8 146.329 8 145.5C 8 144.671 8.67157 144 9.5 144C 10.3284 144 11 144.671 11 145.5Z"/>
<path  d="M 17.5 147C 18.3284 147 19 146.329 19 145.5C 19 144.671 18.3284 144 17.5 144C 16.6716 144 16 144.671 16 145.5C 16 146.329 16.6716 147 17.5 147Z"/>
<path  d="M 27 145.5C 27 146.329 26.3284 147 25.5 147C 24.6716 147 24 146.329 24 145.5C 24 144.671 24.6716 144 25.5 144C 26.3284 144 27 144.671 27 145.5Z"/>
<path  d="M 1.5 155C 2.32843 155 3 154.329 3 153.5C 3 152.671 2.32843 152 1.5 152C 0.67157 152 0 152.671 0 153.5C 0 154.329 0.67157 155 1.5 155Z"/>
<path  d="M 9.5 155C 10.3284 155 11 154.329 11 153.5C 11 152.671 10.3284 152 9.5 152C 8.67157 152 8 152.671 8 153.5C 8 154.329 8.67157 155 9.5 155Z"/>
<path  d="M 19 153.5C 19 154.329 18.3284 155 17.5 155C 16.6716 155 16 154.329 16 153.5C 16 152.671 16.6716 152 17.5 152C 18.3284 152 19 152.671 19 153.5Z"/>
<path  d="M 25.5 155C 26.3284 155 27 154.329 27 153.5C 27 152.671 26.3284 152 25.5 152C 24.6716 152 24 152.671 24 153.5C 24 154.329 24.6716 155 25.5 155Z"/>
<path  d="M 33.5 131C 34.3284 131 35 130.329 35 129.5C 35 128.671 34.3284 128 33.5 128C 32.6716 128 32 128.671 32 129.5C 32 130.329 32.6716 131 33.5 131Z"/>
<path  d="M 41.5 131C 42.3284 131 43 130.329 43 129.5C 43 128.671 42.3284 128 41.5 128C 40.6716 128 40 128.671 40 129.5C 40 130.329 40.6716 131 41.5 131Z"/>
<path  d="M 51 129.5C 51 130.329 50.3284 131 49.5 131C 48.6716 131 48 130.329 48 129.5C 48 128.671 48.6716 128 49.5 128C 50.3284 128 51 128.671 51 129.5Z"/>
<path  d="M 57.5 131C 58.3284 131 59 130.329 59 129.5C 59 128.671 58.3284 128 57.5 128C 56.6716 128 56 128.671 56 129.5C 56 130.329 56.6716 131 57.5 131Z"/>
<path  d="M 33.5 139C 34.3284 139 35 138.329 35 137.5C 35 136.671 34.3284 136 33.5 136C 32.6716 136 32 136.671 32 137.5C 32 138.329 32.6716 139 33.5 139Z"/>
<path  d="M 41.5 139C 42.3284 139 43 138.329 43 137.5C 43 136.671 42.3284 136 41.5 136C 40.6716 136 40 136.671 40 137.5C 40 138.329 40.6716 139 41.5 139Z"/>
<path  d="M 51 137.5C 51 138.329 50.3284 139 49.5 139C 48.6716 139 48 138.329 48 137.5C 48 136.671 48.6716 136 49.5 136C 50.3284 136 51 136.671 51 137.5Z"/>
<path  d="M 57.5 139C 58.3284 139 59 138.329 59 137.5C 59 136.671 58.3284 136 57.5 136C 56.6716 136 56 136.671 56 137.5C 56 138.329 56.6716 139 57.5 139Z"/>
<path  d="M 35 145.5C 35 146.329 34.3284 147 33.5 147C 32.6716 147 32 146.329 32 145.5C 32 144.671 32.6716 144 33.5 144C 34.3284 144 35 144.671 35 145.5Z"/>
<path  d="M 43 145.5C 43 146.329 42.3284 147 41.5 147C 40.6716 147 40 146.329 40 145.5C 40 144.671 40.6716 144 41.5 144C 42.3284 144 43 144.671 43 145.5Z"/>
<path  d="M 49.5 147C 50.3284 147 51 146.329 51 145.5C 51 144.671 50.3284 144 49.5 144C 48.6716 144 48 144.671 48 145.5C 48 146.329 48.6716 147 49.5 147Z"/>
<path  d="M 59 145.5C 59 146.329 58.3284 147 57.5 147C 56.6716 147 56 146.329 56 145.5C 56 144.671 56.6716 144 57.5 144C 58.3284 144 59 144.671 59 145.5Z"/>
<path  d="M 33.5 155C 34.3284 155 35 154.329 35 153.5C 35 152.671 34.3284 152 33.5 152C 32.6716 152 32 152.671 32 153.5C 32 154.329 32.6716 155 33.5 155Z"/>
<path  d="M 41.5 155C 42.3284 155 43 154.329 43 153.5C 43 152.671 42.3284 152 41.5 152C 40.6716 152 40 152.671 40 153.5C 40 154.329 40.6716 155 41.5 155Z"/>
<path  d="M 51 153.5C 51 154.329 50.3284 155 49.5 155C 48.6716 155 48 154.329 48 153.5C 48 152.671 48.6716 152 49.5 152C 50.3284 152 51 152.671 51 153.5Z"/>
<path  d="M 57.5 155C 58.3284 155 59 154.329 59 153.5C 59 152.671 58.3284 152 57.5 152C 56.6716 152 56 152.671 56 153.5C 56 154.329 56.6716 155 57.5 155Z"/>
<path  d="M 67 129.5C 67 130.329 66.3284 131 65.5 131C 64.6716 131 64 130.329 64 129.5C 64 128.671 64.6716 128 65.5 128C 66.3284 128 67 128.671 67 129.5Z"/>
<path  d="M 75 129.5C 75 130.329 74.3284 131 73.5 131C 72.6716 131 72 130.329 72 129.5C 72 128.671 72.6716 128 73.5 128C 74.3284 128 75 128.671 75 129.5Z"/>
<path  d="M 81.5 131C 82.3284 131 83 130.329 83 129.5C 83 128.671 82.3284 128 81.5 128C 80.6716 128 80 128.671 80 129.5C 80 130.329 80.6716 131 81.5 131Z"/>
<path  d="M 91 129.5C 91 130.329 90.3284 131 89.5 131C 88.6716 131 88 130.329 88 129.5C 88 128.671 88.6716 128 89.5 128C 90.3284 128 91 128.671 91 129.5Z"/>
<path  d="M 67 137.5C 67 138.329 66.3284 139 65.5 139C 64.6716 139 64 138.329 64 137.5C 64 136.671 64.6716 136 65.5 136C 66.3284 136 67 136.671 67 137.5Z"/>
<path  d="M 75 137.5C 75 138.329 74.3284 139 73.5 139C 72.6716 139 72 138.329 72 137.5C 72 136.671 72.6716 136 73.5 136C 74.3284 136 75 136.671 75 137.5Z"/>
<path  d="M 81.5 139C 82.3284 139 83 138.329 83 137.5C 83 136.671 82.3284 136 81.5 136C 80.6716 136 80 136.671 80 137.5C 80 138.329 80.6716 139 81.5 139Z"/>
<path  d="M 91 137.5C 91 138.329 90.3284 139 89.5 139C 88.6716 139 88 138.329 88 137.5C 88 136.671 88.6716 136 89.5 136C 90.3284 136 91 136.671 91 137.5Z"/>
<path  d="M 65.5 147C 66.3284 147 67 146.329 67 145.5C 67 144.671 66.3284 144 65.5 144C 64.6716 144 64 144.671 64 145.5C 64 146.329 64.6716 147 65.5 147Z"/>
<path  d="M 73.5 147C 74.3284 147 75 146.329 75 145.5C 75 144.671 74.3284 144 73.5 144C 72.6716 144 72 144.671 72 145.5C 72 146.329 72.6716 147 73.5 147Z"/>
<path  d="M 83 145.5C 83 146.329 82.3284 147 81.5 147C 80.6716 147 80 146.329 80 145.5C 80 144.671 80.6716 144 81.5 144C 82.3284 144 83 144.671 83 145.5Z"/>
<path  d="M 89.5 147C 90.3284 147 91 146.329 91 145.5C 91 144.671 90.3284 144 89.5 144C 88.6716 144 88 144.671 88 145.5C 88 146.329 88.6716 147 89.5 147Z"/>
<path  d="M 67 153.5C 67 154.329 66.3284 155 65.5 155C 64.6716 155 64 154.329 64 153.5C 64 152.671 64.6716 152 65.5 152C 66.3284 152 67 152.671 67 153.5Z"/>
<path  d="M 75 153.5C 75 154.329 74.3284 155 73.5 155C 72.6716 155 72 154.329 72 153.5C 72 152.671 72.6716 152 73.5 152C 74.3284 152 75 152.671 75 153.5Z"/>
<path  d="M 81.5 155C 82.3284 155 83 154.329 83 153.5C 83 152.671 82.3284 152 81.5 152C 80.6716 152 80 152.671 80 153.5C 80 154.329 80.6716 155 81.5 155Z"/>
<path  d="M 91 153.5C 91 154.329 90.3284 155 89.5 155C 88.6716 155 88 154.329 88 153.5C 88 152.671 88.6716 152 89.5 152C 90.3284 152 91 152.671 91 153.5Z"/>
<path  d="M 97.5 131C 98.3284 131 99 130.329 99 129.5C 99 128.671 98.3284 128 97.5 128C 96.6716 128 96 128.671 96 129.5C 96 130.329 96.6716 131 97.5 131Z"/>
<path  d="M 105.5 131C 106.328 131 107 130.329 107 129.5C 107 128.671 106.328 128 105.5 128C 104.672 128 104 128.671 104 129.5C 104 130.329 104.672 131 105.5 131Z"/>
<path  d="M 115 129.5C 115 130.329 114.328 131 113.5 131C 112.672 131 112 130.329 112 129.5C 112 128.671 112.672 128 113.5 128C 114.328 128 115 128.671 115 129.5Z"/>
<path  d="M 121.5 131C 122.328 131 123 130.329 123 129.5C 123 128.671 122.328 128 121.5 128C 120.672 128 120 128.671 120 129.5C 120 130.329 120.672 131 121.5 131Z"/>
<path  d="M 97.5 139C 98.3284 139 99 138.329 99 137.5C 99 136.671 98.3284 136 97.5 136C 96.6716 136 96 136.671 96 137.5C 96 138.329 96.6716 139 97.5 139Z"/>
<path  d="M 105.5 139C 106.328 139 107 138.329 107 137.5C 107 136.671 106.328 136 105.5 136C 104.672 136 104 136.671 104 137.5C 104 138.329 104.672 139 105.5 139Z"/>
<path  d="M 115 137.5C 115 138.329 114.328 139 113.5 139C 112.672 139 112 138.329 112 137.5C 112 136.671 112.672 136 113.5 136C 114.328 136 115 136.671 115 137.5Z"/>
<path  d="M 121.5 139C 122.328 139 123 138.329 123 137.5C 123 136.671 122.328 136 121.5 136C 120.672 136 120 136.671 120 137.5C 120 138.329 120.672 139 121.5 139Z"/>
<path  d="M 99 145.5C 99 146.329 98.3284 147 97.5 147C 96.6716 147 96 146.329 96 145.5C 96 144.671 96.6716 144 97.5 144C 98.3284 144 99 144.671 99 145.5Z"/>
<path  d="M 107 145.5C 107 146.329 106.328 147 105.5 147C 104.672 147 104 146.329 104 145.5C 104 144.671 104.672 144 105.5 144C 106.328 144 107 144.671 107 145.5Z"/>
<path  d="M 113.5 147C 114.328 147 115 146.329 115 145.5C 115 144.671 114.328 144 113.5 144C 112.672 144 112 144.671 112 145.5C 112 146.329 112.672 147 113.5 147Z"/>
<path  d="M 123 145.5C 123 146.329 122.328 147 121.5 147C 120.672 147 120 146.329 120 145.5C 120 144.671 120.672 144 121.5 144C 122.328 144 123 144.671 123 145.5Z"/>
<path  d="M 97.5 155C 98.3284 155 99 154.329 99 153.5C 99 152.671 98.3284 152 97.5 152C 96.6716 152 96 152.671 96 153.5C 96 154.329 96.6716 155 97.5 155Z"/>
<path  d="M 105.5 155C 106.328 155 107 154.329 107 153.5C 107 152.671 106.328 152 105.5 152C 104.672 152 104 152.671 104 153.5C 104 154.329 104.672 155 105.5 155Z"/>
<path  d="M 115 153.5C 115 154.329 114.328 155 113.5 155C 112.672 155 112 154.329 112 153.5C 112 152.671 112.672 152 113.5 152C 114.328 152 115 152.671 115 153.5Z"/>
<path  d="M 121.5 155C 122.328 155 123 154.329 123 153.5C 123 152.671 122.328 152 121.5 152C 120.672 152 120 152.671 120 153.5C 120 154.329 120.672 155 121.5 155Z"/>
<path  d="M 131 129.5C 131 130.329 130.328 131 129.5 131C 128.672 131 128 130.329 128 129.5C 128 128.671 128.672 128 129.5 128C 130.328 128 131 128.671 131 129.5Z"/>
<path  d="M 139 129.5C 139 130.329 138.328 131 137.5 131C 136.672 131 136 130.329 136 129.5C 136 128.671 136.672 128 137.5 128C 138.328 128 139 128.671 139 129.5Z"/>
<path  d="M 145.5 131C 146.328 131 147 130.329 147 129.5C 147 128.671 146.328 128 145.5 128C 144.672 128 144 128.671 144 129.5C 144 130.329 144.672 131 145.5 131Z"/>
<path  d="M 155 129.5C 155 130.329 154.328 131 153.5 131C 152.672 131 152 130.329 152 129.5C 152 128.671 152.672 128 153.5 128C 154.328 128 155 128.671 155 129.5Z"/>
<path  d="M 131 137.5C 131 138.329 130.328 139 129.5 139C 128.672 139 128 138.329 128 137.5C 128 136.671 128.672 136 129.5 136C 130.328 136 131 136.671 131 137.5Z"/>
<path  d="M 139 137.5C 139 138.329 138.328 139 137.5 139C 136.672 139 136 138.329 136 137.5C 136 136.671 136.672 136 137.5 136C 138.328 136 139 136.671 139 137.5Z"/>
<path  d="M 145.5 139C 146.328 139 147 138.329 147 137.5C 147 136.671 146.328 136 145.5 136C 144.672 136 144 136.671 144 137.5C 144 138.329 144.672 139 145.5 139Z"/>
<path  d="M 155 137.5C 155 138.329 154.328 139 153.5 139C 152.672 139 152 138.329 152 137.5C 152 136.671 152.672 136 153.5 136C 154.328 136 155 136.671 155 137.5Z"/>
<path  d="M 129.5 147C 130.328 147 131 146.329 131 145.5C 131 144.671 130.328 144 129.5 144C 128.672 144 128 144.671 128 145.5C 128 146.329 128.672 147 129.5 147Z"/>
<path  d="M 137.5 147C 138.328 147 139 146.329 139 145.5C 139 144.671 138.328 144 137.5 144C 136.672 144 136 144.671 136 145.5C 136 146.329 136.672 147 137.5 147Z"/>
<path  d="M 147 145.5C 147 146.329 146.328 147 145.5 147C 144.672 147 144 146.329 144 145.5C 144 144.671 144.672 144 145.5 144C 146.328 144 147 144.671 147 145.5Z"/>
<path  d="M 153.5 147C 154.328 147 155 146.329 155 145.5C 155 144.671 154.328 144 153.5 144C 152.672 144 152 144.671 152 145.5C 152 146.329 152.672 147 153.5 147Z"/>
<path  d="M 131 153.5C 131 154.329 130.328 155 129.5 155C 128.672 155 128 154.329 128 153.5C 128 152.671 128.672 152 129.5 152C 130.328 152 131 152.671 131 153.5Z"/>
<path  d="M 139 153.5C 139 154.329 138.328 155 137.5 155C 136.672 155 136 154.329 136 153.5C 136 152.671 136.672 152 137.5 152C 138.328 152 139 152.671 139 153.5Z"/>
<path  d="M 145.5 155C 146.328 155 147 154.329 147 153.5C 147 152.671 146.328 152 145.5 152C 144.672 152 144 152.671 144 153.5C 144 154.329 144.672 155 145.5 155Z"/>
<path  d="M 155 153.5C 155 154.329 154.328 155 153.5 155C 152.672 155 152 154.329 152 153.5C 152 152.671 152.672 152 153.5 152C 154.328 152 155 152.671 155 153.5Z"/>
</g>
</svg>
